<svg width="957" height="708" viewBox="0 0 957 708" fill="none" xmlns="http://www.w3.org/2000/svg">
<circle cx="530.5" cy="46.5" r="45.1602" stroke="white" stroke-width="2.67951"/>
<path d="M513.968 36.748V55H509.522V36.748H513.968ZM533.518 55H529.072L521.636 43.742V55H517.19V36.748H521.636L529.072 48.058V36.748H533.518V55ZM546.049 55L542.253 48.11H541.187V55H536.741V36.748H544.203C545.642 36.748 546.864 36.9993 547.869 37.502C548.892 38.0047 549.654 38.698 550.157 39.582C550.66 40.4487 550.911 41.4193 550.911 42.494C550.911 43.7073 550.564 44.7907 549.871 45.744C549.195 46.6973 548.19 47.3733 546.855 47.772L551.067 55H546.049ZM541.187 44.964H543.943C544.758 44.964 545.364 44.7647 545.763 44.366C546.179 43.9673 546.387 43.404 546.387 42.676C546.387 41.9827 546.179 41.4367 545.763 41.038C545.364 40.6393 544.758 40.44 543.943 40.44H541.187V44.964Z" fill="white"/>
<circle cx="653.5" cy="46.5" r="45.1602" stroke="white" stroke-width="2.67951"/>
<g clip-path="url(#clip0_443_689)">
<path fill-rule="evenodd" clip-rule="evenodd" d="M653.994 47.3883C653.467 48.4381 652.566 49.1138 651.59 49.3419C651.443 49.3419 651.217 49.4163 650.991 49.4163C649.341 49.4163 648.366 48.1399 648.366 46.2642C648.366 43.8601 649.791 42.736 651.59 42.2083C652.566 41.9837 653.694 41.908 654.819 41.908V42.8097C654.819 44.5359 654.893 45.886 653.994 47.3883ZM654.819 38.4577C653.844 38.532 652.716 38.6064 651.59 38.7537C649.866 38.9818 648.141 39.2822 646.717 39.9579C643.94 41.0842 642.063 43.4854 642.063 47.0122C642.063 51.4443 644.914 53.6939 648.518 53.6939C649.717 53.6939 650.693 53.5423 651.59 53.3199C653.02 52.868 654.218 52.0421 655.643 50.5397C656.469 51.666 656.696 52.1937 658.12 53.3943C658.495 53.5423 658.871 53.5423 659.169 53.3199C660.07 52.5677 661.648 51.2162 662.472 50.4653C662.847 50.1657 662.773 49.7145 662.545 49.3419C661.722 48.29 660.894 47.3883 660.894 45.3618V38.6057C660.894 35.754 661.122 33.126 659.021 31.176C657.296 29.6021 654.594 29 652.492 29H651.59C647.767 29.2217 643.716 30.8742 642.813 35.6038C642.662 36.2059 643.114 36.4297 643.415 36.5034L647.617 37.0297C648.066 36.9539 648.292 36.5778 648.366 36.2059C648.74 34.554 650.091 33.7281 651.59 33.5758H651.893C652.794 33.5758 653.77 33.952 654.293 34.7042C654.893 35.6038 654.819 36.8058 654.819 37.8577V38.4577Z" fill="white"/>
<path fill-rule="evenodd" clip-rule="evenodd" d="M669.996 54.4616V54.4602C669.98 54.1061 669.906 53.8362 669.758 53.6116L669.742 53.5904L669.724 53.5677C669.574 53.4041 669.431 53.3418 669.275 53.2738C668.809 53.0938 668.131 52.9975 667.315 52.9961C666.73 52.9961 666.084 53.0521 665.434 53.1944L665.432 53.1498L664.778 53.368L664.766 53.3736L664.396 53.4941V53.5096C663.974 53.685 663.573 53.91 663.204 54.1797C662.975 54.3497 662.788 54.5764 662.777 54.9221C662.777 55.0233 662.799 55.1234 662.842 55.2152C662.885 55.307 662.947 55.3883 663.025 55.4533C663.11 55.521 663.208 55.5706 663.313 55.5988C663.418 55.6271 663.527 55.6335 663.635 55.6176L663.667 55.6162L663.691 55.612C664.011 55.544 664.477 55.4979 665.023 55.4221C665.49 55.3697 665.986 55.3322 666.416 55.3322C666.72 55.3301 666.993 55.352 667.181 55.3917C667.262 55.4064 667.34 55.4326 667.413 55.4696C667.428 55.5313 667.434 55.5947 667.431 55.658C667.435 56.0178 667.284 56.6858 667.073 57.3382C666.869 57.9898 666.621 58.6436 666.458 59.0778C666.415 59.1826 666.392 59.2947 666.392 59.4079C666.388 59.5822 666.46 59.794 666.611 59.9342C666.76 60.0738 666.951 60.1297 667.111 60.1297H667.119C667.359 60.1276 667.563 60.032 667.739 59.8938C669.399 58.4021 669.976 56.0178 670 54.6756L669.996 54.4616ZM665.076 56.53C664.901 56.5293 664.729 56.568 664.571 56.6433C664.389 56.7156 664.202 56.7998 664.027 56.8742L663.769 56.9819L663.433 57.1165V57.12C659.785 58.6004 655.953 59.4681 652.406 59.5439C652.276 59.5482 652.144 59.5482 652.018 59.5482C646.441 59.5517 641.891 56.9642 637.301 54.4142C637.152 54.3328 636.986 54.2888 636.816 54.286C636.61 54.286 636.398 54.3639 636.244 54.5077C636.166 54.5812 636.105 54.6697 636.063 54.7677C636.021 54.8657 636 54.9713 636 55.0779C635.998 55.3556 636.148 55.612 636.358 55.7777C640.666 59.5198 645.388 62.9956 651.739 62.9999C651.863 62.9999 651.989 62.9956 652.115 62.9942C656.155 62.9036 660.723 61.5379 664.27 59.3102L664.291 59.296C664.767 59.0121 665.223 58.6966 665.657 58.3518C665.929 58.1499 666.117 57.834 666.117 57.5061C666.105 56.9238 665.61 56.53 665.077 56.53H665.076Z" fill="white"/>
</g>
<circle cx="776.5" cy="46.5" r="45.1602" stroke="white" stroke-width="2.67951"/>
<path d="M758.037 55.4326L755.424 61.4686H767.892L765.279 55.4326H758.037Z" fill="white"/>
<path d="M779.684 40.6577H772.442L769.829 46.6937H782.297L779.684 40.6577Z" fill="white"/>
<path d="M772.473 48.0449H765.23L762.618 54.0809H775.085L772.473 48.0449Z" fill="white"/>
<path d="M772.46 55.4326L769.847 61.4686H782.315L779.702 55.4326H772.46Z" fill="white"/>
<path d="M786.847 55.4326L784.235 61.4686H796.702L794.09 55.4326H786.847Z" fill="white"/>
<path d="M777.041 54.0809H789.508L786.896 48.0449H779.653L777.041 54.0809Z" fill="white"/>
<path d="M776.063 35.7928C776.23 35.7928 776.391 35.7264 776.509 35.6081C776.627 35.4899 776.694 35.3295 776.694 35.1622V31.2883C776.694 31.1211 776.627 30.9607 776.509 30.8424C776.391 30.7242 776.23 30.6577 776.063 30.6577C775.896 30.6577 775.735 30.7242 775.617 30.8424C775.499 30.9607 775.432 31.1211 775.432 31.2883V35.1622C775.432 35.3295 775.499 35.4899 775.617 35.6081C775.735 35.7264 775.896 35.7928 776.063 35.7928ZM790.622 40.8454C790.704 40.8455 790.786 40.8292 790.863 40.7975C790.94 40.7658 791.009 40.7192 791.067 40.6606L793.768 37.96C793.886 37.8418 793.953 37.6814 793.953 37.5141C793.953 37.3468 793.886 37.1864 793.768 37.0682C793.65 36.9499 793.489 36.8834 793.322 36.8834C793.155 36.8834 792.994 36.9499 792.876 37.0682L790.176 39.7687C790.087 39.8569 790.027 39.9693 790.003 40.0916C789.979 40.2139 789.991 40.3407 790.039 40.456C790.087 40.5712 790.167 40.6697 790.271 40.739C790.375 40.8083 790.497 40.8453 790.622 40.8453L790.622 40.8454ZM760.968 40.6606C761.087 40.7789 761.247 40.8453 761.414 40.8453C761.582 40.8453 761.742 40.7789 761.86 40.6606C761.979 40.5423 762.045 40.3819 762.045 40.2146C762.045 40.0474 761.979 39.887 761.86 39.7687L759.16 37.0682C759.101 37.0097 759.032 36.9632 758.955 36.9315C758.878 36.8998 758.796 36.8835 758.714 36.8835C758.631 36.8835 758.549 36.8998 758.472 36.9315C758.396 36.9632 758.326 37.0097 758.268 37.0682C758.209 37.1268 758.163 37.1963 758.131 37.2728C758.099 37.3494 758.083 37.4314 758.083 37.5142C758.083 37.597 758.099 37.679 758.131 37.7555C758.163 37.832 758.209 37.9016 758.268 37.9601L760.968 40.6606ZM767.06 36.9127C767.128 37.0654 767.254 37.185 767.41 37.2449C767.566 37.3049 767.74 37.3004 767.893 37.2325C768.045 37.1645 768.165 37.0386 768.225 36.8826C768.285 36.7265 768.281 36.553 768.213 36.4001L766.661 32.9105C766.628 32.8342 766.58 32.7652 766.52 32.7076C766.46 32.6499 766.389 32.6047 766.311 32.5746C766.234 32.5444 766.151 32.5299 766.068 32.5319C765.985 32.5339 765.903 32.5523 765.827 32.5861C765.751 32.6199 765.682 32.6684 765.625 32.7289C765.568 32.7893 765.523 32.8605 765.493 32.9383C765.464 33.0161 765.45 33.099 765.453 33.1821C765.455 33.2653 765.474 33.3472 765.509 33.4229L767.06 36.9127ZM783.582 36.9482C783.659 36.979 783.741 36.9943 783.824 36.9933C783.907 36.9923 783.988 36.975 784.065 36.9424C784.141 36.9098 784.21 36.8625 784.268 36.8032C784.325 36.7439 784.371 36.6738 784.402 36.5969L785.82 33.0509C785.882 32.8956 785.88 32.7219 785.814 32.5682C785.748 32.4144 785.624 32.2932 785.468 32.231C785.313 32.1689 785.14 32.171 784.986 32.2369C784.832 32.3028 784.711 32.4271 784.649 32.5824L783.23 36.1284C783.199 36.2053 783.184 36.2876 783.185 36.3704C783.186 36.4533 783.204 36.5351 783.236 36.6112C783.269 36.6873 783.316 36.7563 783.376 36.8141C783.435 36.8719 783.505 36.9175 783.582 36.9482Z" fill="white"/>
<circle cx="899.5" cy="46.5" r="45.1602" stroke="white" stroke-width="2.67951"/>
<path d="M889.937 29.991C891.027 30.2876 892.117 30.4853 893.207 30.7818C894.297 31.0783 895.387 31.276 896.476 31.5726C896.774 31.6714 896.873 31.5726 896.972 31.276C897.368 29.5956 897.765 28.014 898.161 26.3336C898.26 26.0371 898.359 25.9382 898.656 26.0371C899.647 26.3336 900.539 26.5313 901.53 26.729C901.827 26.8279 901.827 26.9267 901.728 27.1244C901.332 28.706 900.936 30.3864 900.539 31.968C900.539 32.0668 900.539 32.1657 900.44 32.3634C901.233 32.5611 902.125 32.7588 902.917 32.9565C903.016 32.9565 903.116 32.7588 903.215 32.6599C903.512 31.3749 903.809 30.1887 904.206 28.9037L904.503 27.7175C904.503 27.5198 904.602 27.4209 904.8 27.5198C905.791 27.8163 906.782 28.014 907.872 28.3106C907.971 28.3106 907.971 28.4094 908.07 28.4094C907.773 29.6945 907.475 30.8807 907.178 32.0668C907.079 32.5611 906.98 33.0553 906.782 33.5496C906.683 33.8461 906.782 33.945 907.079 34.0438L910.349 35.5265C911.34 36.1196 912.232 36.9104 912.925 37.8989C913.817 39.3816 913.916 40.9632 913.52 42.5448C913.223 43.6321 912.826 44.6206 912.034 45.4114C911.439 46.0045 910.646 46.3999 909.854 46.6964C909.755 46.6964 909.655 46.7953 909.457 46.7953C909.854 47.0918 910.25 47.2895 910.646 47.5861C911.835 48.4757 912.628 49.563 913.025 50.9469C913.223 52.0343 913.124 53.2205 912.826 54.3078C912.43 55.6917 911.935 56.8778 911.043 57.9652C909.953 59.2502 908.565 59.9422 906.98 60.1399C904.899 60.4364 902.917 60.2387 900.936 59.9422C900.638 59.8433 900.44 59.9422 900.341 60.2387C899.945 61.8203 899.548 63.5007 899.152 65.0823C899.053 65.4777 899.053 65.5765 898.557 65.3788C897.666 65.1811 896.675 64.8846 895.783 64.6869C895.486 64.588 895.486 64.4892 895.585 64.2915C895.981 62.6111 896.377 60.9306 896.873 59.3491C896.873 59.1514 896.972 59.0525 896.774 58.9537C895.981 58.756 895.188 58.5583 894.297 58.3606C894.098 59.2502 893.801 60.1399 893.603 61.0295C893.405 61.9191 893.107 62.8088 892.909 63.6984C892.81 63.8961 892.81 63.9949 892.513 63.8961C891.522 63.5996 890.531 63.4019 889.54 63.2042C889.243 63.1053 889.243 63.0065 889.342 62.8088C889.738 61.1283 890.135 59.4479 890.63 57.8663C890.63 57.7675 890.729 57.6686 890.729 57.4709C888.45 56.8778 886.171 56.2848 883.793 55.6917C883.991 55.2963 884.09 54.9997 884.288 54.6043C884.685 53.7147 885.081 52.8251 885.378 52.0343C885.477 51.7377 885.577 51.7377 885.874 51.7377C886.567 51.9354 887.36 52.1331 888.054 52.232C888.847 52.4297 889.441 52.0343 889.54 51.3423C890.828 46.301 892.117 41.2598 893.306 36.1196C893.504 35.3288 893.008 34.4392 892.117 34.1427C891.225 33.8461 890.333 33.6484 889.54 33.4507C889.342 33.4507 889.243 33.3519 889.342 33.1542C889.639 32.0668 889.937 30.8807 890.234 29.7933C889.837 30.0899 889.837 30.0899 889.937 29.991ZM894.99 54.4066C895.089 54.4066 895.188 54.5055 895.188 54.5055C896.774 54.9009 898.458 55.3951 900.143 55.494C901.332 55.5928 902.422 55.5928 903.512 55.1974C905.395 54.6043 906.187 52.1331 905.097 50.5515C904.602 49.7607 903.809 49.2665 903.016 48.7723C901.233 47.7838 899.152 47.3884 897.17 46.993C896.873 46.8941 896.873 46.993 896.774 47.2895C896.576 48.278 896.278 49.1677 896.08 50.1561C895.684 51.54 895.387 52.9239 894.99 54.4066ZM903.314 44.3241C903.512 44.3241 904.007 44.2252 904.404 44.1264C906.286 43.731 907.277 41.5563 906.286 39.8759C905.791 38.9862 904.899 38.3932 904.007 37.9978C902.62 37.4047 901.233 37.1081 899.746 36.7127C899.449 36.6139 899.35 36.7127 899.251 37.0093C898.756 39.0851 898.26 41.0621 897.666 43.1379C897.566 43.3356 897.666 43.4344 897.864 43.5333C898.26 43.6321 898.557 43.731 898.954 43.8298C900.44 44.0275 901.728 44.3241 903.314 44.3241Z" fill="white"/>
<circle cx="653.5" cy="169.5" r="45.1602" stroke="white" stroke-width="2.67951"/>
<g clip-path="url(#clip1_443_689)">
<path d="M667.429 169.281C667.429 168.052 667.329 167.155 667.112 166.225H653.015V171.772H661.29C661.123 173.151 660.222 175.227 658.22 176.622L658.192 176.808L662.649 180.245L662.958 180.276C665.794 177.668 667.429 173.832 667.429 169.281Z" fill="white"/>
<path d="M653.015 183.897C657.069 183.897 660.472 182.568 662.958 180.276L658.22 176.622C656.952 177.502 655.251 178.117 653.015 178.117C649.045 178.117 645.675 175.509 644.474 171.905L644.298 171.92L639.663 175.491L639.603 175.658C642.072 180.542 647.143 183.897 653.015 183.897Z" fill="white"/>
<path d="M644.474 171.905C644.157 170.975 643.974 169.978 643.974 168.949C643.974 167.919 644.157 166.922 644.457 165.992L644.449 165.794L639.756 162.166L639.603 162.238C638.585 164.265 638.001 166.54 638.001 168.949C638.001 171.357 638.585 173.632 639.603 175.659L644.474 171.905Z" fill="white"/>
<path d="M653.015 159.78C655.835 159.78 657.736 160.993 658.821 162.006L663.058 157.887C660.456 155.478 657.069 154 653.015 154C647.143 154 642.072 157.355 639.603 162.238L644.457 165.992C645.675 162.388 649.045 159.78 653.015 159.78Z" fill="white"/>
</g>
<circle cx="530.5" cy="169.5" r="45.1602" stroke="white" stroke-width="2.67951"/>
<path d="M540.97 175.879C540.97 178.192 540.225 180.185 538.737 181.856C537.248 183.527 535.314 184.559 532.935 184.952V188.921C532.935 189.133 532.868 189.307 532.733 189.443C532.599 189.579 532.427 189.647 532.217 189.647H529.187C528.993 189.647 528.825 189.575 528.682 189.432C528.54 189.288 528.469 189.118 528.469 188.921V184.952C527.482 184.816 526.528 184.581 525.608 184.249C524.688 183.916 523.928 183.579 523.33 183.239C522.732 182.899 522.178 182.536 521.669 182.15C521.161 181.765 520.813 181.481 520.626 181.3C520.439 181.118 520.308 180.982 520.233 180.892C519.979 180.574 519.964 180.264 520.188 179.962L522.5 176.899C522.604 176.748 522.776 176.658 523.016 176.627C523.24 176.597 523.42 176.665 523.554 176.831L523.599 176.877C525.29 178.374 527.108 179.319 529.053 179.712C529.606 179.833 530.16 179.894 530.714 179.894C531.925 179.894 532.991 179.568 533.912 178.918C534.832 178.268 535.292 177.346 535.292 176.151C535.292 175.728 535.18 175.327 534.955 174.949C534.731 174.571 534.48 174.253 534.203 173.996C533.927 173.739 533.489 173.456 532.89 173.146C532.292 172.836 531.798 172.594 531.409 172.42C531.02 172.246 530.422 172 529.614 171.683C529.03 171.441 528.57 171.252 528.234 171.115C527.897 170.979 527.437 170.779 526.853 170.514C526.27 170.25 525.802 170.015 525.451 169.811C525.099 169.607 524.677 169.339 524.183 169.006C523.689 168.673 523.289 168.352 522.982 168.042C522.675 167.732 522.35 167.361 522.006 166.931C521.662 166.5 521.396 166.061 521.209 165.615C521.022 165.169 520.865 164.666 520.738 164.107C520.611 163.547 520.547 162.957 520.547 162.337C520.547 160.251 521.28 158.421 522.746 156.848C524.213 155.275 526.12 154.262 528.469 153.809V149.726C528.469 149.529 528.54 149.359 528.682 149.215C528.825 149.072 528.993 149 529.187 149H532.217C532.427 149 532.599 149.068 532.733 149.204C532.868 149.34 532.935 149.514 532.935 149.726V153.718C533.788 153.809 534.615 153.983 535.415 154.24C536.216 154.497 536.866 154.75 537.368 155C537.869 155.249 538.344 155.533 538.793 155.85C539.242 156.168 539.533 156.387 539.668 156.508C539.803 156.629 539.915 156.735 540.005 156.825C540.259 157.098 540.296 157.385 540.117 157.687L538.299 160.999C538.179 161.226 538.007 161.347 537.783 161.362C537.573 161.407 537.371 161.354 537.177 161.203C537.132 161.158 537.024 161.067 536.851 160.931C536.679 160.795 536.388 160.595 535.976 160.33C535.565 160.065 535.127 159.823 534.663 159.604C534.2 159.385 533.642 159.188 532.991 159.014C532.341 158.84 531.701 158.753 531.073 158.753C529.651 158.753 528.492 159.079 527.594 159.729C526.696 160.379 526.247 161.218 526.247 162.247C526.247 162.64 526.311 163.003 526.438 163.335C526.565 163.668 526.786 163.982 527.1 164.277C527.415 164.572 527.71 164.821 527.987 165.025C528.264 165.229 528.682 165.464 529.244 165.728C529.805 165.993 530.257 166.197 530.601 166.341C530.945 166.484 531.469 166.692 532.172 166.965C532.965 167.267 533.571 167.505 533.99 167.679C534.409 167.853 534.978 168.118 535.696 168.473C536.414 168.828 536.979 169.15 537.39 169.437C537.802 169.724 538.265 170.102 538.782 170.571C539.298 171.04 539.694 171.52 539.971 172.011C540.248 172.503 540.483 173.081 540.678 173.747C540.872 174.412 540.97 175.123 540.97 175.879Z" fill="white"/>
<circle cx="776.5" cy="169.5" r="45.1602" stroke="white" stroke-width="2.67951"/>
<path d="M782.107 155.584C782.792 154.821 783.315 153.935 783.645 152.977C783.975 152.019 784.106 151.007 784.03 150C781.924 150.164 779.97 151.119 778.587 152.661C777.925 153.399 777.424 154.258 777.112 155.188C776.801 156.117 776.685 157.097 776.773 158.069C777.8 158.078 778.816 157.858 779.74 157.427C780.665 156.996 781.475 156.365 782.107 155.584ZM786.678 168.607C786.69 167.265 787.056 165.949 787.742 164.782C788.428 163.616 789.41 162.637 790.597 161.938C789.848 160.897 788.858 160.038 787.705 159.431C786.553 158.823 785.269 158.483 783.957 158.437C781.127 158.157 778.515 160.03 777.009 160.03C775.503 160.03 773.381 158.472 771.023 158.507C769.481 158.556 767.979 158.99 766.662 159.766C765.346 160.542 764.261 161.634 763.512 162.935C760.32 168.292 762.696 176.256 765.889 180.579C767.34 182.697 769.154 185.095 771.549 185.008C773.943 184.92 774.723 183.573 777.499 183.573C780.274 183.573 781.127 185.008 783.485 184.955C785.844 184.903 787.513 182.785 789.036 180.667C790.116 179.129 790.959 177.449 791.54 175.678C790.102 175.087 788.876 174.102 788.012 172.845C787.148 171.588 786.684 170.115 786.678 168.607Z" fill="white"/>
<circle cx="899.5" cy="169.5" r="45.1602" stroke="white" stroke-width="2.67951"/>
<path d="M903.125 155H908.562V184H903.125V155ZM892.25 155H897.688V184H892.25V155Z" fill="white"/>
<path d="M908.562 184H903.125L892.25 155H897.688L908.562 184Z" fill="white"/>
<circle cx="530.5" cy="292.5" r="45.1602" stroke="white" stroke-width="2.67951"/>
<g clip-path="url(#clip2_443_689)">
<path d="M531.101 290.981H547V276.141C547 275.86 546.889 275.59 546.69 275.392C546.491 275.193 546.221 275.081 545.94 275.081H531.101V290.981Z" fill="white"/>
<path d="M528.981 290.981V275.081H514.141C513.86 275.081 513.59 275.193 513.392 275.392C513.193 275.59 513.081 275.86 513.081 276.141V290.981H528.981Z" fill="white"/>
<path d="M528.981 293.101H513.081V307.94C513.081 308.221 513.193 308.491 513.392 308.69C513.59 308.889 513.86 309 514.141 309H528.981V293.101Z" fill="white"/>
<path d="M531.101 293.101V309H545.94C546.221 309 546.491 308.889 546.69 308.69C546.889 308.491 547 308.221 547 307.94V293.101H531.101Z" fill="white"/>
</g>
<circle cx="653.5" cy="292.5" r="45.1602" stroke="white" stroke-width="2.67951"/>
<circle cx="653.5" cy="292.5" r="45.1602" stroke="white" stroke-width="2.67951"/>
<path d="M638 307.407V300.252H642.174V283.899H638V277H655.461C656.653 277 657.845 277.341 658.953 277.767C661.167 278.618 663.126 279.896 664.659 281.77C666.022 283.388 666.959 285.262 667.47 287.391C668.322 290.968 668.322 294.631 667.3 298.208C665.937 302.893 663.041 306.044 658.101 307.151C657.249 307.322 656.312 307.407 655.461 307.492H638.681C638.426 307.407 638.256 307.407 638 307.407ZM650.691 300.252C651.628 300.252 652.565 300.338 653.502 300.252C654.694 300.167 655.801 299.741 656.568 298.719C657.249 297.868 657.845 296.931 658.186 295.909C658.868 293.609 658.612 291.309 658.101 289.009C657.845 287.647 657.164 286.369 656.312 285.347C655.801 284.751 655.12 284.069 654.353 283.984C653.161 283.729 651.883 283.899 650.691 283.899V300.252Z" fill="white"/>
<circle cx="776.5" cy="292.5" r="45.1602" stroke="white" stroke-width="2.67951"/>
<path d="M780.839 297.336C777.651 297.336 774.744 294.87 774.623 294.765C774.386 294.557 774.241 294.265 774.218 293.951C774.196 293.637 774.298 293.327 774.503 293.088C774.708 292.849 774.999 292.701 775.313 292.675C775.626 292.65 775.937 292.749 776.178 292.951C776.202 292.97 778.544 294.944 780.839 294.944C780.858 294.946 780.879 294.939 780.898 294.939L780.898 289.987C780.406 289.839 779.88 289.734 779.285 289.734C775.872 289.734 771.838 292.485 769.417 294.602C772.118 296.825 776.707 299.509 780.062 299.509C780.334 299.509 780.616 299.475 780.898 299.442L780.898 297.332L780.839 297.336Z" fill="white"/>
<path d="M758.195 306.679L779.704 306.679C780.021 306.679 780.325 306.553 780.549 306.329C780.773 306.105 780.899 305.801 780.899 305.484L780.899 301.839C780.619 301.865 780.34 301.899 780.063 301.899C775.311 301.899 769.413 297.965 766.813 295.484C766.576 295.262 766.445 294.951 766.442 294.629C766.44 294.306 766.571 293.993 766.801 293.766C767.472 293.109 773.526 287.342 779.288 287.342C779.864 287.342 780.395 287.411 780.901 287.512L780.901 285.301C780.607 285.234 780.316 285.17 780.063 285.17C776.731 285.17 766.904 287.887 763.811 290.912C763.584 291.129 763.28 291.247 762.966 291.242C762.652 291.236 762.352 291.107 762.133 290.882C761.913 290.658 761.791 290.356 761.792 290.041C761.794 289.727 761.919 289.426 762.141 289.204C765.864 285.557 776.272 282.78 780.063 282.78C780.328 282.78 780.619 282.861 780.899 282.904L780.899 279.195C780.899 278.878 780.773 278.574 780.549 278.35C780.325 278.126 780.021 278 779.704 278L758.195 278C757.878 278 757.574 278.126 757.35 278.35C757.126 278.574 757 278.878 757 279.195L757 305.484C757 305.801 757.126 306.105 757.35 306.329C757.574 306.553 757.878 306.679 758.195 306.679Z" fill="white"/>
<path d="M784.802 293.469C783.941 294.05 782.407 294.915 780.899 294.939L780.899 297.332C784.066 297.3 786.934 294.87 787.055 294.767C787.236 294.612 787.366 294.406 787.429 294.176C787.492 293.946 787.484 293.702 787.407 293.477C787.33 293.247 785.622 288.441 780.899 287.511L780.899 289.985C783.04 290.625 784.262 292.415 784.802 293.469Z" fill="white"/>
<path d="M792.192 294.229C791.331 294.691 790.452 295.19 789.57 295.694C786.599 297.389 783.54 299.119 780.899 299.442L780.899 301.839C784.104 301.543 787.479 299.638 790.753 297.769C792.051 297.03 793.332 296.299 794.57 295.694C794.729 295.616 794.869 295.503 794.979 295.363C795.089 295.224 795.167 295.062 795.207 294.889C795.247 294.716 795.249 294.536 795.211 294.362C795.173 294.189 795.097 294.026 794.988 293.885C790.928 288.697 785.156 283.527 780.899 282.904L780.899 285.301C783.724 285.929 788.241 289.483 792.192 294.229Z" fill="white"/>
<circle cx="899.5" cy="292.5" r="45.1602" stroke="white" stroke-width="2.67951"/>
<path d="M891.89 288.958L898.804 282.047L905.721 288.964L909.742 284.94L898.804 274L887.867 284.937L891.89 288.958Z" fill="white"/>
<path d="M881 291.801L885.021 287.777L889.044 291.801L885.021 295.822L881 291.801Z" fill="white"/>
<path d="M891.89 294.641L898.804 301.555L905.721 294.638L909.745 298.657L898.807 309.596L887.866 298.664L891.89 294.641Z" fill="white"/>
<path d="M908.555 291.801L912.575 287.777L916.599 291.798L912.575 295.825L908.555 291.801Z" fill="white"/>
<path d="M902.884 291.799L898.804 287.716L895.787 290.733L895.439 291.079L894.725 291.793L898.804 295.87L902.884 291.801V291.799Z" fill="white"/>
<circle cx="46.5" cy="46.5" r="45.1602" stroke="white" stroke-width="2.67951"/>
<path d="M29.9682 36.748L29.9682 55H25.5222L25.5222 36.748H29.9682ZM49.5181 55H45.0721L37.6361 43.742V55H33.1901L33.1901 36.748H37.6361L45.0721 48.058V36.748H49.5181V55ZM62.0489 55L58.2529 48.11H57.1869V55H52.7409V36.748H60.2029C61.6416 36.748 62.8636 36.9993 63.8689 37.502C64.8916 38.0047 65.6542 38.698 66.1569 39.582C66.6596 40.4487 66.9109 41.4193 66.9109 42.494C66.9109 43.7073 66.5642 44.7907 65.8709 45.744C65.1949 46.6973 64.1896 47.3733 62.8549 47.772L67.0669 55H62.0489ZM57.1869 44.964H59.9429C60.7576 44.964 61.3642 44.7647 61.7629 44.366C62.1789 43.9673 62.3869 43.404 62.3869 42.676C62.3869 41.9827 62.1789 41.4367 61.7629 41.038C61.3642 40.6393 60.7576 40.44 59.9429 40.44H57.1869V44.964Z" fill="white"/>
<circle cx="169.5" cy="46.5" r="45.1602" stroke="white" stroke-width="2.67951"/>
<g clip-path="url(#clip3_443_689)">
<path fill-rule="evenodd" clip-rule="evenodd" d="M169.994 47.3883C169.467 48.4381 168.566 49.1138 167.59 49.3419C167.443 49.3419 167.217 49.4163 166.991 49.4163C165.341 49.4163 164.366 48.1399 164.366 46.2642C164.366 43.8601 165.791 42.736 167.59 42.2083C168.566 41.9837 169.694 41.908 170.819 41.908V42.8097C170.819 44.5359 170.893 45.886 169.994 47.3883ZM170.819 38.4577C169.844 38.532 168.716 38.6064 167.59 38.7537C165.866 38.9818 164.141 39.2822 162.717 39.9579C159.94 41.0842 158.063 43.4854 158.063 47.0122C158.063 51.4443 160.914 53.6939 164.518 53.6939C165.717 53.6939 166.693 53.5423 167.59 53.3199C169.02 52.868 170.218 52.0421 171.643 50.5397C172.469 51.666 172.696 52.1937 174.12 53.3943C174.495 53.5423 174.871 53.5423 175.169 53.3199C176.07 52.5677 177.648 51.2162 178.472 50.4653C178.847 50.1657 178.773 49.7145 178.545 49.3419C177.722 48.29 176.894 47.3883 176.894 45.3618V38.6057C176.894 35.754 177.122 33.126 175.021 31.176C173.296 29.6021 170.594 29 168.492 29H167.59C163.767 29.2217 159.716 30.8742 158.813 35.6038C158.662 36.2059 159.114 36.4297 159.415 36.5034L163.617 37.0297C164.066 36.9539 164.292 36.5778 164.366 36.2059C164.74 34.554 166.091 33.7281 167.59 33.5758H167.893C168.794 33.5758 169.77 33.952 170.293 34.7042C170.893 35.6038 170.819 36.8058 170.819 37.8577V38.4577Z" fill="white"/>
<path fill-rule="evenodd" clip-rule="evenodd" d="M185.996 54.4616V54.4602C185.98 54.1061 185.906 53.8362 185.758 53.6116L185.742 53.5904L185.724 53.5677C185.574 53.4041 185.431 53.3418 185.275 53.2738C184.809 53.0938 184.131 52.9975 183.315 52.9961C182.73 52.9961 182.084 53.0521 181.434 53.1944L181.432 53.1498L180.778 53.368L180.766 53.3736L180.396 53.4941V53.5096C179.974 53.685 179.573 53.91 179.204 54.1797C178.975 54.3497 178.788 54.5764 178.777 54.9221C178.777 55.0233 178.799 55.1234 178.842 55.2152C178.885 55.307 178.947 55.3883 179.025 55.4533C179.11 55.521 179.208 55.5706 179.313 55.5988C179.418 55.6271 179.527 55.6335 179.635 55.6176L179.667 55.6162L179.691 55.612C180.011 55.544 180.477 55.4979 181.023 55.4221C181.49 55.3697 181.986 55.3322 182.416 55.3322C182.72 55.3301 182.993 55.352 183.181 55.3917C183.262 55.4064 183.34 55.4326 183.413 55.4696C183.428 55.5313 183.434 55.5947 183.431 55.658C183.435 56.0178 183.284 56.6858 183.073 57.3382C182.869 57.9898 182.621 58.6436 182.458 59.0778C182.415 59.1826 182.392 59.2947 182.392 59.4079C182.388 59.5822 182.46 59.794 182.611 59.9342C182.76 60.0738 182.951 60.1297 183.111 60.1297H183.119C183.359 60.1276 183.563 60.032 183.739 59.8938C185.399 58.4021 185.976 56.0178 186 54.6756L185.996 54.4616ZM181.076 56.53C180.901 56.5293 180.729 56.568 180.571 56.6433C180.389 56.7156 180.202 56.7998 180.027 56.8742L179.769 56.9819L179.433 57.1165V57.12C175.785 58.6004 171.953 59.4681 168.406 59.5439C168.276 59.5482 168.144 59.5482 168.018 59.5482C162.441 59.5517 157.891 56.9642 153.301 54.4142C153.152 54.3328 152.986 54.2888 152.816 54.286C152.61 54.286 152.398 54.3639 152.244 54.5077C152.166 54.5812 152.105 54.6697 152.063 54.7677C152.021 54.8657 152 54.9713 152 55.0779C151.998 55.3556 152.148 55.612 152.358 55.7777C156.666 59.5198 161.388 62.9956 167.739 62.9999C167.863 62.9999 167.989 62.9956 168.115 62.9942C172.155 62.9036 176.723 61.5379 180.27 59.3102L180.291 59.296C180.767 59.0121 181.223 58.6966 181.657 58.3518C181.929 58.1499 182.117 57.834 182.117 57.5061C182.105 56.9238 181.61 56.53 181.077 56.53H181.076Z" fill="white"/>
</g>
<circle cx="292.5" cy="46.5" r="45.1602" stroke="white" stroke-width="2.67951"/>
<path d="M274.037 55.4326L271.424 61.4686H283.892L281.279 55.4326H274.037Z" fill="white"/>
<path d="M295.684 40.6577H288.442L285.829 46.6937H298.297L295.684 40.6577Z" fill="white"/>
<path d="M288.473 48.0449H281.23L278.618 54.0809H291.085L288.473 48.0449Z" fill="white"/>
<path d="M288.459 55.4326L285.847 61.4686H298.315L295.702 55.4326H288.459Z" fill="white"/>
<path d="M302.847 55.4326L300.235 61.4686H312.702L310.09 55.4326H302.847Z" fill="white"/>
<path d="M293.041 54.0809H305.508L302.896 48.0449H295.653L293.041 54.0809Z" fill="white"/>
<path d="M292.063 35.7928C292.23 35.7928 292.391 35.7264 292.509 35.6081C292.627 35.4899 292.694 35.3295 292.694 35.1622V31.2883C292.694 31.1211 292.627 30.9607 292.509 30.8424C292.391 30.7242 292.23 30.6577 292.063 30.6577C291.896 30.6577 291.735 30.7242 291.617 30.8424C291.499 30.9607 291.432 31.1211 291.432 31.2883V35.1622C291.432 35.3295 291.499 35.4899 291.617 35.6081C291.735 35.7264 291.896 35.7928 292.063 35.7928ZM306.622 40.8454C306.704 40.8455 306.786 40.8292 306.863 40.7975C306.939 40.7658 307.009 40.7192 307.067 40.6606L309.768 37.96C309.886 37.8418 309.953 37.6814 309.953 37.5141C309.953 37.3468 309.886 37.1864 309.768 37.0682C309.65 36.9499 309.489 36.8834 309.322 36.8834C309.155 36.8834 308.994 36.9499 308.876 37.0682L306.175 39.7687C306.087 39.8569 306.027 39.9693 306.003 40.0916C305.979 40.2139 305.991 40.3407 306.039 40.456C306.086 40.5712 306.167 40.6697 306.271 40.739C306.375 40.8083 306.497 40.8453 306.621 40.8453L306.622 40.8454ZM276.968 40.6606C277.087 40.7789 277.247 40.8453 277.414 40.8453C277.581 40.8453 277.742 40.7789 277.86 40.6606C277.978 40.5423 278.045 40.3819 278.045 40.2146C278.045 40.0474 277.978 39.887 277.86 39.7687L275.159 37.0682C275.101 37.0097 275.031 36.9632 274.955 36.9315C274.878 36.8998 274.796 36.8835 274.714 36.8835C274.631 36.8835 274.549 36.8998 274.472 36.9315C274.396 36.9632 274.326 37.0097 274.268 37.0682C274.209 37.1268 274.163 37.1963 274.131 37.2728C274.099 37.3494 274.083 37.4314 274.083 37.5142C274.083 37.597 274.099 37.679 274.131 37.7555C274.163 37.832 274.209 37.9016 274.268 37.9601L276.968 40.6606ZM283.06 36.9127C283.128 37.0654 283.254 37.185 283.41 37.2449C283.566 37.3049 283.74 37.3004 283.893 37.2325C284.045 37.1645 284.165 37.0386 284.225 36.8826C284.285 36.7265 284.28 36.553 284.213 36.4001L282.661 32.9105C282.628 32.8342 282.58 32.7652 282.52 32.7076C282.46 32.6499 282.389 32.6047 282.311 32.5746C282.234 32.5444 282.151 32.5299 282.068 32.5319C281.985 32.5339 281.903 32.5523 281.827 32.5861C281.75 32.6199 281.682 32.6684 281.625 32.7289C281.567 32.7893 281.523 32.8605 281.493 32.9383C281.464 33.0161 281.45 33.099 281.452 33.1821C281.455 33.2653 281.474 33.3472 281.508 33.4229L283.06 36.9127ZM299.582 36.9482C299.659 36.979 299.741 36.9943 299.824 36.9933C299.907 36.9923 299.988 36.975 300.064 36.9424C300.141 36.9098 300.21 36.8625 300.267 36.8032C300.325 36.7439 300.371 36.6738 300.402 36.5969L301.82 33.0509C301.882 32.8956 301.88 32.7219 301.814 32.5682C301.748 32.4144 301.624 32.2932 301.468 32.231C301.313 32.1689 301.139 32.171 300.986 32.2369C300.832 32.3028 300.711 32.4271 300.649 32.5824L299.23 36.1284C299.199 36.2053 299.184 36.2876 299.185 36.3704C299.186 36.4533 299.203 36.5351 299.236 36.6112C299.269 36.6873 299.316 36.7563 299.375 36.8141C299.435 36.8719 299.505 36.9175 299.582 36.9482Z" fill="white"/>
<circle cx="415.5" cy="46.5" r="45.1602" stroke="white" stroke-width="2.67951"/>
<path d="M405.937 29.991C407.027 30.2876 408.117 30.4853 409.207 30.7818C410.297 31.0783 411.387 31.276 412.476 31.5726C412.774 31.6714 412.873 31.5726 412.972 31.276C413.368 29.5956 413.765 28.014 414.161 26.3336C414.26 26.0371 414.359 25.9382 414.656 26.0371C415.647 26.3336 416.539 26.5313 417.53 26.729C417.827 26.8279 417.827 26.9267 417.728 27.1244C417.332 28.706 416.936 30.3864 416.539 31.968C416.539 32.0668 416.539 32.1657 416.44 32.3634C417.233 32.5611 418.125 32.7588 418.917 32.9565C419.016 32.9565 419.116 32.7588 419.215 32.6599C419.512 31.3749 419.809 30.1887 420.206 28.9037L420.503 27.7175C420.503 27.5198 420.602 27.4209 420.8 27.5198C421.791 27.8163 422.782 28.014 423.872 28.3106C423.971 28.3106 423.971 28.4094 424.07 28.4094C423.773 29.6945 423.475 30.8807 423.178 32.0668C423.079 32.5611 422.98 33.0553 422.782 33.5496C422.683 33.8461 422.782 33.945 423.079 34.0438L426.349 35.5265C427.34 36.1196 428.232 36.9104 428.925 37.8989C429.817 39.3816 429.916 40.9632 429.52 42.5448C429.223 43.6321 428.826 44.6206 428.034 45.4114C427.439 46.0045 426.646 46.3999 425.854 46.6964C425.755 46.6964 425.655 46.7953 425.457 46.7953C425.854 47.0918 426.25 47.2895 426.646 47.5861C427.835 48.4757 428.628 49.563 429.025 50.9469C429.223 52.0343 429.124 53.2205 428.826 54.3078C428.43 55.6917 427.935 56.8778 427.043 57.9652C425.953 59.2502 424.565 59.9422 422.98 60.1399C420.899 60.4364 418.917 60.2387 416.936 59.9422C416.638 59.8433 416.44 59.9422 416.341 60.2387C415.945 61.8203 415.548 63.5007 415.152 65.0823C415.053 65.4777 415.053 65.5765 414.557 65.3788C413.666 65.1811 412.675 64.8846 411.783 64.6869C411.486 64.588 411.486 64.4892 411.585 64.2915C411.981 62.6111 412.377 60.9306 412.873 59.3491C412.873 59.1514 412.972 59.0525 412.774 58.9537C411.981 58.756 411.188 58.5583 410.297 58.3606C410.098 59.2502 409.801 60.1399 409.603 61.0295C409.405 61.9191 409.107 62.8088 408.909 63.6984C408.81 63.8961 408.81 63.9949 408.513 63.8961C407.522 63.5996 406.531 63.4019 405.54 63.2042C405.243 63.1053 405.243 63.0065 405.342 62.8088C405.738 61.1283 406.135 59.4479 406.63 57.8663C406.63 57.7675 406.729 57.6686 406.729 57.4709C404.45 56.8778 402.171 56.2848 399.793 55.6917C399.991 55.2963 400.09 54.9997 400.288 54.6043C400.685 53.7147 401.081 52.8251 401.378 52.0343C401.477 51.7377 401.577 51.7377 401.874 51.7377C402.567 51.9354 403.36 52.1331 404.054 52.232C404.847 52.4297 405.441 52.0343 405.54 51.3423C406.828 46.301 408.117 41.2598 409.306 36.1196C409.504 35.3288 409.008 34.4392 408.117 34.1427C407.225 33.8461 406.333 33.6484 405.54 33.4507C405.342 33.4507 405.243 33.3519 405.342 33.1542C405.639 32.0668 405.937 30.8807 406.234 29.7933C405.837 30.0899 405.837 30.0899 405.937 29.991ZM410.99 54.4066C411.089 54.4066 411.188 54.5055 411.188 54.5055C412.774 54.9009 414.458 55.3951 416.143 55.494C417.332 55.5928 418.422 55.5928 419.512 55.1974C421.395 54.6043 422.187 52.1331 421.097 50.5515C420.602 49.7607 419.809 49.2665 419.016 48.7723C417.233 47.7838 415.152 47.3884 413.17 46.993C412.873 46.8941 412.873 46.993 412.774 47.2895C412.576 48.278 412.278 49.1677 412.08 50.1561C411.684 51.54 411.387 52.9239 410.99 54.4066ZM419.314 44.3241C419.512 44.3241 420.007 44.2252 420.404 44.1264C422.286 43.731 423.277 41.5563 422.286 39.8759C421.791 38.9862 420.899 38.3932 420.007 37.9978C418.62 37.4047 417.233 37.1081 415.746 36.7127C415.449 36.6139 415.35 36.7127 415.251 37.0093C414.756 39.0851 414.26 41.0621 413.666 43.1379C413.566 43.3356 413.666 43.4344 413.864 43.5333C414.26 43.6321 414.557 43.731 414.954 43.8298C416.44 44.0275 417.728 44.3241 419.314 44.3241Z" fill="white"/>
<circle cx="46.5" cy="169.5" r="45.1602" stroke="white" stroke-width="2.67951"/>
<g clip-path="url(#clip4_443_689)">
<path d="M60.4288 169.281C60.4288 168.052 60.3286 167.155 60.1118 166.225H46.0154V171.772H54.2897C54.1229 173.151 53.2221 175.227 51.2202 176.622L51.1921 176.808L55.6492 180.245L55.958 180.276C58.7939 177.668 60.4288 173.832 60.4288 169.281Z" fill="white"/>
<path d="M46.0154 183.897C50.0691 183.897 53.4723 182.568 55.958 180.276L51.2202 176.622C49.9524 177.502 48.2508 178.117 46.0154 178.117C42.0451 178.117 38.6753 175.509 37.4741 171.905L37.298 171.92L32.6635 175.491L32.6029 175.658C35.0718 180.542 40.1432 183.897 46.0154 183.897Z" fill="white"/>
<path d="M37.4742 171.905C37.1573 170.975 36.9738 169.978 36.9738 168.949C36.9738 167.919 37.1573 166.922 37.4575 165.992L37.4491 165.794L32.7566 162.166L32.603 162.238C31.5855 164.265 31.0016 166.54 31.0016 168.949C31.0016 171.357 31.5855 173.632 32.603 175.659L37.4742 171.905Z" fill="white"/>
<path d="M46.0154 159.78C48.8347 159.78 50.7364 160.993 51.8208 162.006L56.058 157.887C53.4557 155.478 50.0691 154 46.0154 154C40.1432 154 35.0718 157.355 32.6029 162.238L37.4574 165.992C38.6753 162.388 42.0451 159.78 46.0154 159.78Z" fill="white"/>
</g>
<circle cx="169.5" cy="169.5" r="45.1602" stroke="white" stroke-width="2.67951"/>
<path d="M179.97 175.879C179.97 178.192 179.225 180.185 177.737 181.856C176.248 183.527 174.314 184.559 171.935 184.952V188.921C171.935 189.133 171.868 189.307 171.733 189.443C171.599 189.579 171.427 189.647 171.217 189.647H168.187C167.993 189.647 167.825 189.575 167.682 189.432C167.54 189.288 167.469 189.118 167.469 188.921V184.952C166.482 184.816 165.528 184.581 164.608 184.249C163.688 183.916 162.928 183.579 162.33 183.239C161.732 182.899 161.178 182.536 160.669 182.15C160.161 181.765 159.813 181.481 159.626 181.3C159.439 181.118 159.308 180.982 159.233 180.892C158.979 180.574 158.964 180.264 159.188 179.962L161.5 176.899C161.604 176.748 161.776 176.658 162.016 176.627C162.24 176.597 162.42 176.665 162.554 176.831L162.599 176.877C164.29 178.374 166.108 179.319 168.053 179.712C168.606 179.833 169.16 179.894 169.714 179.894C170.925 179.894 171.991 179.568 172.912 178.918C173.832 178.268 174.292 177.346 174.292 176.151C174.292 175.728 174.18 175.327 173.955 174.949C173.731 174.571 173.48 174.253 173.203 173.996C172.927 173.739 172.489 173.456 171.89 173.146C171.292 172.836 170.798 172.594 170.409 172.42C170.02 172.246 169.422 172 168.614 171.683C168.03 171.441 167.57 171.252 167.234 171.115C166.897 170.979 166.437 170.779 165.853 170.514C165.27 170.25 164.802 170.015 164.451 169.811C164.099 169.607 163.677 169.339 163.183 169.006C162.689 168.673 162.289 168.352 161.982 168.042C161.675 167.732 161.35 167.361 161.006 166.931C160.662 166.5 160.396 166.061 160.209 165.615C160.022 165.169 159.865 164.666 159.738 164.107C159.611 163.547 159.547 162.957 159.547 162.337C159.547 160.251 160.28 158.421 161.746 156.848C163.213 155.275 165.12 154.262 167.469 153.809V149.726C167.469 149.529 167.54 149.359 167.682 149.215C167.825 149.072 167.993 149 168.187 149H171.217C171.427 149 171.599 149.068 171.733 149.204C171.868 149.34 171.935 149.514 171.935 149.726V153.718C172.788 153.809 173.615 153.983 174.415 154.24C175.216 154.497 175.866 154.75 176.368 155C176.869 155.249 177.344 155.533 177.793 155.85C178.242 156.168 178.533 156.387 178.668 156.508C178.803 156.629 178.915 156.735 179.005 156.825C179.259 157.098 179.296 157.385 179.117 157.687L177.299 160.999C177.179 161.226 177.007 161.347 176.783 161.362C176.573 161.407 176.371 161.354 176.177 161.203C176.132 161.158 176.024 161.067 175.851 160.931C175.679 160.795 175.388 160.595 174.976 160.33C174.565 160.065 174.127 159.823 173.663 159.604C173.2 159.385 172.642 159.188 171.991 159.014C171.341 158.84 170.701 158.753 170.073 158.753C168.651 158.753 167.492 159.079 166.594 159.729C165.696 160.379 165.247 161.218 165.247 162.247C165.247 162.64 165.311 163.003 165.438 163.335C165.565 163.668 165.786 163.982 166.1 164.277C166.415 164.572 166.71 164.821 166.987 165.025C167.264 165.229 167.682 165.464 168.244 165.728C168.805 165.993 169.257 166.197 169.601 166.341C169.945 166.484 170.469 166.692 171.172 166.965C171.965 167.267 172.571 167.505 172.99 167.679C173.409 167.853 173.978 168.118 174.696 168.473C175.414 168.828 175.979 169.15 176.39 169.437C176.802 169.724 177.265 170.102 177.782 170.571C178.298 171.04 178.694 171.52 178.971 172.011C179.248 172.503 179.483 173.081 179.678 173.747C179.872 174.412 179.97 175.123 179.97 175.879Z" fill="white"/>
<circle cx="292.5" cy="169.5" r="45.1602" stroke="white" stroke-width="2.67951"/>
<path d="M298.107 155.584C298.792 154.821 299.315 153.935 299.645 152.977C299.975 152.019 300.106 151.007 300.03 150C297.924 150.164 295.97 151.119 294.587 152.661C293.925 153.399 293.424 154.258 293.112 155.188C292.801 156.117 292.685 157.097 292.773 158.069C293.8 158.078 294.816 157.858 295.74 157.427C296.665 156.996 297.475 156.365 298.107 155.584ZM302.678 168.607C302.69 167.265 303.056 165.949 303.742 164.782C304.428 163.616 305.41 162.637 306.597 161.938C305.848 160.897 304.858 160.038 303.705 159.431C302.553 158.823 301.269 158.483 299.957 158.437C297.127 158.157 294.515 160.03 293.009 160.03C291.503 160.03 289.381 158.472 287.023 158.507C285.481 158.556 283.979 158.99 282.662 159.766C281.346 160.542 280.261 161.634 279.512 162.935C276.32 168.292 278.696 176.256 281.889 180.579C283.34 182.697 285.154 185.095 287.549 185.008C289.943 184.92 290.723 183.573 293.499 183.573C296.274 183.573 297.127 185.008 299.485 184.955C301.844 184.903 303.513 182.785 305.036 180.667C306.116 179.129 306.959 177.449 307.54 175.678C306.102 175.087 304.876 174.102 304.012 172.845C303.148 171.588 302.684 170.115 302.678 168.607Z" fill="white"/>
<circle cx="415.5" cy="169.5" r="45.1602" stroke="white" stroke-width="2.67951"/>
<path d="M419.125 155H424.562V184H419.125V155ZM408.25 155H413.688V184H408.25V155Z" fill="white"/>
<path d="M424.562 184H419.125L408.25 155H413.688L424.562 184Z" fill="white"/>
<circle cx="46.5" cy="292.5" r="45.1602" stroke="white" stroke-width="2.67951"/>
<g clip-path="url(#clip5_443_689)">
<path d="M47.1006 290.981H63.0002V276.141C63.0002 275.86 62.8885 275.59 62.6897 275.392C62.491 275.193 62.2213 275.081 61.9402 275.081H47.1006V290.981Z" fill="white"/>
<path d="M44.9807 290.981V275.081H30.141C29.8599 275.081 29.5903 275.193 29.3915 275.392C29.1927 275.59 29.0811 275.86 29.0811 276.141L29.0811 290.981H44.9807Z" fill="white"/>
<path d="M44.9807 293.101H29.0811L29.0811 307.94C29.0811 308.221 29.1927 308.491 29.3915 308.69C29.5903 308.889 29.8599 309 30.141 309H44.9807V293.101Z" fill="white"/>
<path d="M47.1006 293.101V309H61.9402C62.2213 309 62.491 308.889 62.6897 308.69C62.8885 308.491 63.0002 308.221 63.0002 307.94V293.101H47.1006Z" fill="white"/>
</g>
<circle cx="292.5" cy="292.5" r="45.1602" stroke="white" stroke-width="2.67951"/>
<path d="M296.839 297.336C293.651 297.336 290.745 294.87 290.623 294.765C290.386 294.557 290.241 294.265 290.219 293.951C290.197 293.637 290.299 293.327 290.504 293.088C290.709 292.849 290.999 292.701 291.313 292.675C291.627 292.65 291.938 292.749 292.179 292.951C292.203 292.97 294.545 294.944 296.839 294.944C296.858 294.946 296.88 294.939 296.899 294.939L296.899 289.987C296.407 289.839 295.881 289.734 295.286 289.734C291.873 289.734 287.839 292.485 285.418 294.602C288.118 296.825 292.707 299.509 296.062 299.509C296.335 299.509 296.617 299.475 296.899 299.442L296.899 297.332L296.839 297.336Z" fill="white"/>
<path d="M274.195 306.679L295.704 306.679C296.021 306.679 296.325 306.553 296.549 306.329C296.773 306.105 296.899 305.801 296.899 305.484L296.899 301.839C296.62 301.865 296.34 301.899 296.063 301.899C291.312 301.899 285.413 297.965 282.813 295.484C282.577 295.262 282.445 294.951 282.443 294.629C282.44 294.306 282.572 293.993 282.801 293.766C283.473 293.109 289.526 287.342 295.289 287.342C295.865 287.342 296.395 287.411 296.902 287.512L296.902 285.301C296.608 285.234 296.316 285.17 296.063 285.17C292.731 285.17 282.904 287.887 279.811 290.912C279.584 291.129 279.28 291.247 278.966 291.242C278.652 291.236 278.353 291.107 278.133 290.882C277.913 290.658 277.791 290.356 277.793 290.041C277.794 289.727 277.919 289.426 278.141 289.204C281.864 285.557 292.272 282.78 296.063 282.78C296.328 282.78 296.62 282.861 296.899 282.904L296.899 279.195C296.899 278.878 296.773 278.574 296.549 278.35C296.325 278.126 296.021 278 295.704 278L274.195 278C273.878 278 273.574 278.126 273.35 278.35C273.126 278.574 273 278.878 273 279.195L273 305.484C273 305.801 273.126 306.105 273.35 306.329C273.574 306.553 273.878 306.679 274.195 306.679Z" fill="white"/>
<path d="M300.802 293.469C299.941 294.05 298.407 294.915 296.899 294.939L296.899 297.332C300.066 297.3 302.933 294.87 303.055 294.767C303.236 294.612 303.366 294.406 303.429 294.176C303.492 293.946 303.484 293.702 303.407 293.477C303.33 293.247 301.621 288.441 296.899 287.511L296.899 289.985C299.04 290.625 300.262 292.415 300.802 293.469Z" fill="white"/>
<path d="M308.192 294.229C307.331 294.691 306.452 295.19 305.57 295.694C302.599 297.389 299.54 299.119 296.899 299.442L296.899 301.839C300.104 301.543 303.479 299.638 306.753 297.769C308.051 297.03 309.332 296.299 310.57 295.694C310.729 295.616 310.869 295.503 310.979 295.363C311.089 295.224 311.167 295.062 311.207 294.889C311.247 294.716 311.248 294.536 311.21 294.362C311.173 294.189 311.096 294.026 310.988 293.885C306.927 288.697 301.156 283.527 296.899 282.904L296.899 285.301C299.724 285.929 304.241 289.483 308.192 294.229Z" fill="white"/>
<circle cx="415.5" cy="292.5" r="45.1602" stroke="white" stroke-width="2.67951"/>
<path d="M407.89 288.958L414.804 282.047L421.721 288.964L425.741 284.94L414.804 274L403.867 284.937L407.89 288.958Z" fill="white"/>
<path d="M397 291.801L401.021 287.777L405.044 291.801L401.021 295.822L397 291.801Z" fill="white"/>
<path d="M407.89 294.641L414.804 301.555L421.721 294.638L425.745 298.657L414.807 309.596L403.866 298.664L407.89 294.641Z" fill="white"/>
<path d="M424.555 291.801L428.576 287.777L432.6 291.798L428.576 295.825L424.555 291.801Z" fill="white"/>
<path d="M418.884 291.799L414.804 287.716L411.787 290.733L411.438 291.079L410.724 291.793L414.804 295.87L418.884 291.801V291.799Z" fill="white"/>
<circle cx="46.5" cy="415.5" r="45.1602" stroke="white" stroke-width="2.67951"/>
<path d="M29.9682 405.748L29.9682 424H25.5222L25.5222 405.748H29.9682ZM49.5181 424H45.0721L37.6361 412.742V424H33.1901L33.1901 405.748H37.6361L45.0721 417.058V405.748H49.5181V424ZM62.0489 424L58.2529 417.11H57.1869V424H52.7409V405.748H60.2029C61.6416 405.748 62.8636 405.999 63.8689 406.502C64.8916 407.005 65.6542 407.698 66.1569 408.582C66.6596 409.449 66.9109 410.419 66.9109 411.494C66.9109 412.707 66.5642 413.791 65.8709 414.744C65.1949 415.697 64.1896 416.373 62.8549 416.772L67.0669 424H62.0489ZM57.1869 413.964H59.9429C60.7576 413.964 61.3642 413.765 61.7629 413.366C62.1789 412.967 62.3869 412.404 62.3869 411.676C62.3869 410.983 62.1789 410.437 61.7629 410.038C61.3642 409.639 60.7576 409.44 59.9429 409.44H57.1869V413.964Z" fill="white"/>
<circle cx="46.5" cy="538.5" r="45.1602" stroke="white" stroke-width="2.67951"/>
<g clip-path="url(#clip6_443_689)">
<path d="M46.9997 524.649C51.5807 524.649 55.2944 522.489 55.2944 519.824C55.2944 517.16 51.5807 515 46.9997 515C42.4186 515 38.705 517.16 38.705 519.824C38.705 522.489 42.4186 524.649 46.9997 524.649Z" fill="white"/>
<path d="M46.9997 561C51.5807 561 55.2944 558.84 55.2944 556.175C55.2944 553.511 51.5807 551.351 46.9997 551.351C42.4186 551.351 38.705 553.511 38.705 556.175C38.705 558.84 42.4186 561 46.9997 561Z" fill="white"/>
<path d="M35.4413 531.326C37.7318 527.359 37.7166 523.062 35.4074 521.729C33.0982 520.396 29.3694 522.531 27.0789 526.498C24.7884 530.465 24.8035 534.762 27.1127 536.095C29.4219 537.428 33.1507 535.293 35.4413 531.326Z" fill="white"/>
<path d="M66.9162 549.502C69.2067 545.534 69.193 541.238 66.8856 539.906C64.5781 538.574 60.8507 540.71 58.5602 544.677C56.2697 548.644 56.2834 552.94 58.5908 554.273C60.8983 555.605 64.6257 553.469 66.9162 549.502Z" fill="white"/>
<path d="M35.408 554.271C37.7172 552.937 37.7324 548.641 35.4419 544.673C33.1513 540.706 29.4225 538.571 27.1133 539.904C24.8041 541.238 24.789 545.534 27.0795 549.502C29.37 553.469 33.0988 555.604 35.408 554.271Z" fill="white"/>
<path d="M66.8891 536.097C69.1965 534.765 69.2103 530.469 66.9197 526.501C64.6292 522.534 60.9018 520.398 58.5944 521.73C56.2869 523.063 56.2732 527.359 58.5637 531.326C60.8543 535.293 64.5817 537.429 66.8891 536.097Z" fill="white"/>
</g>
<circle cx="169.5" cy="415.5" r="45.1602" stroke="white" stroke-width="2.67951"/>
<path d="M179.97 421.879C179.97 424.192 179.225 426.185 177.737 427.856C176.248 429.527 174.314 430.559 171.935 430.952V434.921C171.935 435.133 171.868 435.307 171.733 435.443C171.599 435.579 171.427 435.647 171.217 435.647H168.187C167.993 435.647 167.825 435.575 167.682 435.432C167.54 435.288 167.469 435.118 167.469 434.921V430.952C166.482 430.816 165.528 430.581 164.608 430.249C163.688 429.916 162.928 429.579 162.33 429.239C161.732 428.899 161.178 428.536 160.669 428.15C160.161 427.765 159.813 427.481 159.626 427.3C159.439 427.118 159.308 426.982 159.233 426.892C158.979 426.574 158.964 426.264 159.188 425.962L161.5 422.899C161.604 422.748 161.776 422.658 162.016 422.627C162.24 422.597 162.42 422.665 162.554 422.831L162.599 422.877C164.29 424.374 166.108 425.319 168.053 425.712C168.606 425.833 169.16 425.894 169.714 425.894C170.925 425.894 171.991 425.568 172.912 424.918C173.832 424.268 174.292 423.346 174.292 422.151C174.292 421.728 174.18 421.327 173.955 420.949C173.731 420.571 173.48 420.253 173.203 419.996C172.927 419.739 172.489 419.456 171.89 419.146C171.292 418.836 170.798 418.594 170.409 418.42C170.02 418.246 169.422 418 168.614 417.683C168.03 417.441 167.57 417.252 167.234 417.115C166.897 416.979 166.437 416.779 165.853 416.514C165.27 416.25 164.802 416.015 164.451 415.811C164.099 415.607 163.677 415.339 163.183 415.006C162.689 414.673 162.289 414.352 161.982 414.042C161.675 413.732 161.35 413.361 161.006 412.931C160.662 412.5 160.396 412.061 160.209 411.615C160.022 411.169 159.865 410.666 159.738 410.107C159.611 409.547 159.547 408.957 159.547 408.337C159.547 406.251 160.28 404.421 161.746 402.848C163.213 401.275 165.12 400.262 167.469 399.809V395.726C167.469 395.529 167.54 395.359 167.682 395.215C167.825 395.072 167.993 395 168.187 395H171.217C171.427 395 171.599 395.068 171.733 395.204C171.868 395.34 171.935 395.514 171.935 395.726V399.718C172.788 399.809 173.615 399.983 174.415 400.24C175.216 400.497 175.866 400.75 176.368 401C176.869 401.249 177.344 401.533 177.793 401.85C178.242 402.168 178.533 402.387 178.668 402.508C178.803 402.629 178.915 402.735 179.005 402.825C179.259 403.098 179.296 403.385 179.117 403.687L177.299 406.999C177.179 407.226 177.007 407.347 176.783 407.362C176.573 407.407 176.371 407.354 176.177 407.203C176.132 407.158 176.024 407.067 175.851 406.931C175.679 406.795 175.388 406.595 174.976 406.33C174.565 406.065 174.127 405.823 173.663 405.604C173.2 405.385 172.642 405.188 171.991 405.014C171.341 404.84 170.701 404.753 170.073 404.753C168.651 404.753 167.492 405.079 166.594 405.729C165.696 406.379 165.247 407.218 165.247 408.247C165.247 408.64 165.311 409.003 165.438 409.335C165.565 409.668 165.786 409.982 166.1 410.277C166.415 410.572 166.71 410.821 166.987 411.025C167.264 411.229 167.682 411.464 168.244 411.728C168.805 411.993 169.257 412.197 169.601 412.341C169.945 412.484 170.469 412.692 171.172 412.965C171.965 413.267 172.571 413.505 172.99 413.679C173.409 413.853 173.978 414.118 174.696 414.473C175.414 414.828 175.979 415.15 176.39 415.437C176.802 415.724 177.265 416.102 177.782 416.571C178.298 417.04 178.694 417.52 178.971 418.011C179.248 418.503 179.483 419.081 179.678 419.747C179.872 420.412 179.97 421.123 179.97 421.879Z" fill="white"/>
<circle cx="169.5" cy="538.5" r="45.1602" stroke="white" stroke-width="2.67951"/>
<path d="M169.498 518L169.223 518.934V546.044L169.498 546.319L182.082 538.881L169.498 518Z" fill="white"/>
<path d="M169.5 518L156.915 538.881L169.498 546.319V518H169.5Z" fill="white"/>
<path d="M169.497 548.702L169.342 548.891V558.549L169.497 559L182.089 541.267L169.497 548.702Z" fill="white"/>
<path d="M169.498 559V548.702L156.915 541.267L169.498 559Z" fill="white"/>
<path d="M169.494 546.32L182.078 538.882L169.494 533.162V546.32Z" fill="white"/>
<path d="M156.915 538.881L169.498 546.319V533.16L156.915 538.881Z" fill="white"/>
<circle cx="415.5" cy="538.5" r="45.1602" stroke="white" stroke-width="2.67951"/>
<g clip-path="url(#clip7_443_689)">
<path d="M33.2101 669.066C33.4301 668.842 33.7288 668.716 34.0405 668.716H62.6965C62.8127 668.716 62.9264 668.75 63.023 668.816C63.1197 668.881 63.195 668.974 63.2394 669.082C63.2839 669.191 63.2954 669.311 63.2726 669.426C63.2498 669.541 63.1937 669.647 63.1114 669.73L57.4509 675.459C57.3418 675.569 57.2123 675.656 57.0698 675.716C56.9273 675.776 56.7746 675.806 56.6204 675.806H27.9644C27.8491 675.805 27.7364 675.77 27.6407 675.705C27.5449 675.64 27.4701 675.548 27.4258 675.44C27.3815 675.332 27.3695 675.214 27.3914 675.099C27.4133 674.984 27.468 674.879 27.5488 674.796L33.2101 669.066Z" fill="white"/>
<path d="M33.2098 647.676C33.4322 647.457 33.7297 647.333 34.0403 647.33H62.6963C62.8125 647.329 62.9261 647.364 63.0228 647.429C63.1194 647.495 63.1947 647.588 63.2392 647.696C63.2836 647.805 63.2952 647.924 63.2724 648.04C63.2496 648.155 63.1935 648.261 63.1112 648.344L57.4507 654.072C57.3416 654.183 57.2121 654.27 57.0696 654.33C56.9271 654.389 56.7744 654.42 56.6202 654.42H27.9642C27.8488 654.419 27.7362 654.384 27.6404 654.319C27.5446 654.254 27.4699 654.162 27.4256 654.054C27.3812 653.946 27.3693 653.828 27.3912 653.713C27.413 653.598 27.4678 653.493 27.5486 653.409L33.2098 647.676Z" fill="white"/>
<path d="M57.4513 658.303C57.3423 658.193 57.2128 658.105 57.0703 658.046C56.9278 657.986 56.7751 657.955 56.6209 657.956H27.9649C27.8488 657.956 27.7353 657.99 27.6387 658.056C27.5422 658.121 27.467 658.214 27.4225 658.322C27.378 658.431 27.3663 658.55 27.3889 658.665C27.4115 658.781 27.4673 658.887 27.5493 658.97L33.2105 664.698C33.3196 664.809 33.4491 664.896 33.5915 664.956C33.734 665.015 33.8868 665.046 34.041 665.046H62.697C62.8132 665.046 62.9268 665.011 63.0234 664.946C63.1201 664.881 63.1954 664.788 63.2398 664.679C63.2843 664.571 63.2958 664.451 63.2731 664.336C63.2503 664.221 63.1942 664.115 63.1119 664.032L57.4513 658.303Z" fill="white"/>
</g>
<circle cx="46.5" cy="661.5" r="45.1602" stroke="white" stroke-width="2.67951"/>
<circle cx="169.5" cy="661.5" r="45.1602" stroke="white" stroke-width="2.67951"/>
<circle cx="169.5" cy="661.5" r="45.1602" stroke="white" stroke-width="2.67951"/>
<path d="M154 676.407V669.252H158.174V652.899H154V646H171.461C172.653 646 173.845 646.341 174.953 646.767C177.167 647.618 179.126 648.896 180.659 650.77C182.022 652.388 182.959 654.262 183.47 656.391C184.322 659.968 184.322 663.631 183.3 667.208C181.937 671.893 179.041 675.044 174.101 676.151C173.249 676.322 172.312 676.407 171.461 676.492H154.681C154.426 676.407 154.256 676.407 154 676.407ZM166.691 669.252C167.628 669.252 168.565 669.338 169.502 669.252C170.694 669.167 171.801 668.741 172.568 667.719C173.249 666.868 173.845 665.931 174.186 664.909C174.868 662.609 174.612 660.309 174.101 658.009C173.845 656.647 173.164 655.369 172.312 654.347C171.801 653.751 171.12 653.069 170.353 652.984C169.161 652.729 167.883 652.899 166.691 652.899V669.252Z" fill="white"/>
<circle cx="292.5" cy="661.5" r="45.1602" stroke="white" stroke-width="2.67951"/>
<path d="M304.705 647H309.694L299.31 657.429C295.55 661.204 289.453 661.204 285.69 657.429L275.301 647H280.295L288.184 654.922C289.334 656.071 290.883 656.716 292.497 656.716C294.111 656.716 295.66 656.071 296.809 654.922L304.705 647Z" fill="white"/>
<path d="M280.231 676H275.238L285.689 665.506C289.45 661.732 295.547 661.732 299.31 665.506L309.762 676H304.772L296.815 668.013C295.666 666.864 294.117 666.22 292.503 666.22C290.889 666.22 289.34 666.864 288.19 668.013L280.231 676Z" fill="white"/>
<circle cx="415.5" cy="661.5" r="45.1602" stroke="white" stroke-width="2.67951"/>
<path d="M407.89 657.958L414.804 651.047L421.721 657.964L425.741 653.94L414.804 643L403.867 653.937L407.89 657.958Z" fill="white"/>
<path d="M397 660.801L401.021 656.777L405.044 660.801L401.021 664.822L397 660.801Z" fill="white"/>
<path d="M407.89 663.641L414.804 670.555L421.721 663.638L425.745 667.657L414.807 678.596L403.866 667.664L407.89 663.641Z" fill="white"/>
<path d="M424.555 660.801L428.576 656.777L432.6 660.798L428.576 664.825L424.555 660.801Z" fill="white"/>
<path d="M418.884 660.799L414.804 656.716L411.787 659.733L411.438 660.079L410.724 660.793L414.804 664.87L418.884 660.801V660.799Z" fill="white"/>
<circle cx="415.5" cy="538.5" r="45.1602" stroke="white" stroke-width="2.67951"/>
<path d="M425.97 544.879C425.97 547.192 425.225 549.185 423.737 550.856C422.248 552.527 420.314 553.559 417.935 553.952V557.921C417.935 558.133 417.868 558.307 417.733 558.443C417.599 558.579 417.427 558.647 417.217 558.647H414.187C413.993 558.647 413.825 558.575 413.682 558.432C413.54 558.288 413.469 558.118 413.469 557.921V553.952C412.482 553.816 411.528 553.581 410.608 553.249C409.688 552.916 408.928 552.579 408.33 552.239C407.732 551.899 407.178 551.536 406.669 551.15C406.161 550.765 405.813 550.481 405.626 550.3C405.439 550.118 405.308 549.982 405.233 549.892C404.979 549.574 404.964 549.264 405.188 548.962L407.5 545.899C407.604 545.748 407.776 545.658 408.016 545.627C408.24 545.597 408.42 545.665 408.554 545.831L408.599 545.877C410.29 547.374 412.108 548.319 414.053 548.712C414.606 548.833 415.16 548.894 415.714 548.894C416.925 548.894 417.991 548.568 418.912 547.918C419.832 547.268 420.292 546.346 420.292 545.151C420.292 544.728 420.18 544.327 419.955 543.949C419.731 543.571 419.48 543.253 419.203 542.996C418.927 542.739 418.489 542.456 417.89 542.146C417.292 541.836 416.798 541.594 416.409 541.42C416.02 541.246 415.422 541 414.614 540.683C414.03 540.441 413.57 540.252 413.234 540.115C412.897 539.979 412.437 539.779 411.853 539.514C411.27 539.25 410.802 539.015 410.451 538.811C410.099 538.607 409.677 538.339 409.183 538.006C408.689 537.673 408.289 537.352 407.982 537.042C407.675 536.732 407.35 536.361 407.006 535.931C406.662 535.5 406.396 535.061 406.209 534.615C406.022 534.169 405.865 533.666 405.738 533.107C405.611 532.547 405.547 531.957 405.547 531.337C405.547 529.251 406.28 527.421 407.746 525.848C409.213 524.275 411.12 523.262 413.469 522.809V518.726C413.469 518.529 413.54 518.359 413.682 518.215C413.825 518.072 413.993 518 414.187 518H417.217C417.427 518 417.599 518.068 417.733 518.204C417.868 518.34 417.935 518.514 417.935 518.726V522.718C418.788 522.809 419.615 522.983 420.415 523.24C421.216 523.497 421.866 523.75 422.368 524C422.869 524.249 423.344 524.533 423.793 524.85C424.242 525.168 424.533 525.387 424.668 525.508C424.803 525.629 424.915 525.735 425.005 525.825C425.259 526.098 425.296 526.385 425.117 526.687L423.299 529.999C423.179 530.226 423.007 530.347 422.783 530.362C422.573 530.407 422.371 530.354 422.177 530.203C422.132 530.158 422.024 530.067 421.851 529.931C421.679 529.795 421.388 529.595 420.976 529.33C420.565 529.065 420.127 528.823 419.663 528.604C419.2 528.385 418.642 528.188 417.991 528.014C417.341 527.84 416.701 527.753 416.073 527.753C414.651 527.753 413.492 528.079 412.594 528.729C411.696 529.379 411.247 530.218 411.247 531.247C411.247 531.64 411.311 532.003 411.438 532.335C411.565 532.668 411.786 532.982 412.1 533.277C412.415 533.572 412.71 533.821 412.987 534.025C413.264 534.229 413.682 534.464 414.244 534.728C414.805 534.993 415.257 535.197 415.601 535.341C415.945 535.484 416.469 535.692 417.172 535.965C417.965 536.267 418.571 536.505 418.99 536.679C419.409 536.853 419.978 537.118 420.696 537.473C421.414 537.828 421.979 538.15 422.39 538.437C422.802 538.724 423.265 539.102 423.782 539.571C424.298 540.04 424.694 540.52 424.971 541.011C425.248 541.503 425.483 542.081 425.678 542.747C425.872 543.412 425.97 544.123 425.97 544.879Z" fill="white"/>
<circle cx="530.5" cy="415.5" r="45.1602" stroke="white" stroke-width="2.67951"/>
<path d="M513.968 405.748V424H509.522V405.748H513.968ZM533.518 424H529.072L521.636 412.742V424H517.19V405.748H521.636L529.072 417.058V405.748H533.518V424ZM546.049 424L542.253 417.11H541.187V424H536.741V405.748H544.203C545.642 405.748 546.864 405.999 547.869 406.502C548.892 407.005 549.654 407.698 550.157 408.582C550.66 409.449 550.911 410.419 550.911 411.494C550.911 412.707 550.564 413.791 549.871 414.744C549.195 415.697 548.19 416.373 546.855 416.772L551.067 424H546.049ZM541.187 413.964H543.943C544.758 413.964 545.364 413.765 545.763 413.366C546.179 412.967 546.387 412.404 546.387 411.676C546.387 410.983 546.179 410.437 545.763 410.038C545.364 409.639 544.758 409.44 543.943 409.44H541.187V413.964Z" fill="white"/>
<circle cx="776.5" cy="415.5" r="45.1602" stroke="white" stroke-width="2.67951"/>
<path d="M759.968 405.748V424H755.522V405.748H759.968ZM779.518 424H775.072L767.636 412.742V424H763.19V405.748H767.636L775.072 417.058V405.748H779.518V424ZM792.049 424L788.253 417.11H787.187V424H782.741V405.748H790.203C791.642 405.748 792.864 405.999 793.869 406.502C794.892 407.005 795.654 407.698 796.157 408.582C796.66 409.449 796.911 410.419 796.911 411.494C796.911 412.707 796.564 413.791 795.871 414.744C795.195 415.697 794.19 416.373 792.855 416.772L797.067 424H792.049ZM787.187 413.964H789.943C790.758 413.964 791.364 413.765 791.763 413.366C792.179 412.967 792.387 412.404 792.387 411.676C792.387 410.983 792.179 410.437 791.763 410.038C791.364 409.639 790.758 409.44 789.943 409.44H787.187V413.964Z" fill="white"/>
<circle cx="530.5" cy="538.5" r="45.1602" stroke="white" stroke-width="2.67951"/>
<g clip-path="url(#clip8_443_689)">
<path d="M529.875 539.486L527.192 549.388H541.545C541.737 549.381 541.923 549.457 542.064 549.6C542.204 549.744 542.287 549.942 542.294 550.152V550.412L541.046 555.13C540.991 555.353 540.869 555.549 540.699 555.685C540.529 555.822 540.321 555.891 540.111 555.881H518.143L521.825 542.154L517.706 543.519L518.643 540.378L522.761 539.012L527.941 519.752C527.998 519.53 528.121 519.336 528.291 519.2C528.46 519.064 528.667 518.993 528.877 519H534.431C534.623 518.993 534.81 519.07 534.95 519.213C535.09 519.357 535.173 519.555 535.179 519.765V520.026L530.811 536.28L534.93 534.914L534.058 538.192L529.875 539.486Z" fill="white"/>
</g>
<circle cx="653.5" cy="415.5" r="45.1602" stroke="white" stroke-width="2.67951"/>
<path d="M635.037 424.433L632.424 430.469H644.892L642.279 424.433H635.037Z" fill="white"/>
<path d="M656.684 409.658H649.442L646.829 415.694H659.297L656.684 409.658Z" fill="white"/>
<path d="M649.473 417.045H642.23L639.618 423.081H652.085L649.473 417.045Z" fill="white"/>
<path d="M649.46 424.433L646.847 430.469H659.315L656.702 424.433H649.46Z" fill="white"/>
<path d="M663.847 424.433L661.235 430.469H673.702L671.09 424.433H663.847Z" fill="white"/>
<path d="M654.041 423.081H666.508L663.896 417.045H656.653L654.041 423.081Z" fill="white"/>
<path d="M653.063 404.793C653.23 404.793 653.391 404.726 653.509 404.608C653.627 404.49 653.694 404.329 653.694 404.162V400.288C653.694 400.121 653.627 399.961 653.509 399.842C653.391 399.724 653.23 399.658 653.063 399.658C652.896 399.658 652.735 399.724 652.617 399.842C652.499 399.961 652.432 400.121 652.432 400.288V404.162C652.432 404.329 652.499 404.49 652.617 404.608C652.735 404.726 652.896 404.793 653.063 404.793ZM667.622 409.845C667.704 409.845 667.786 409.829 667.863 409.797C667.94 409.766 668.009 409.719 668.067 409.661L670.768 406.96C670.886 406.842 670.953 406.681 670.953 406.514C670.953 406.347 670.886 406.186 670.768 406.068C670.65 405.95 670.489 405.883 670.322 405.883C670.155 405.883 669.994 405.95 669.876 406.068L667.176 408.769C667.087 408.857 667.027 408.969 667.003 409.092C666.979 409.214 666.991 409.341 667.039 409.456C667.087 409.571 667.167 409.67 667.271 409.739C667.375 409.808 667.497 409.845 667.622 409.845L667.622 409.845ZM637.968 409.661C638.087 409.779 638.247 409.845 638.414 409.845C638.582 409.845 638.742 409.779 638.86 409.661C638.979 409.542 639.045 409.382 639.045 409.215C639.045 409.047 638.979 408.887 638.86 408.769L636.16 406.068C636.101 406.01 636.032 405.963 635.955 405.932C635.878 405.9 635.796 405.884 635.714 405.884C635.631 405.884 635.549 405.9 635.472 405.932C635.396 405.963 635.326 406.01 635.268 406.068C635.209 406.127 635.163 406.196 635.131 406.273C635.099 406.349 635.083 406.431 635.083 406.514C635.083 406.597 635.099 406.679 635.131 406.756C635.163 406.832 635.209 406.902 635.268 406.96L637.968 409.661ZM644.06 405.913C644.128 406.065 644.254 406.185 644.41 406.245C644.566 406.305 644.74 406.3 644.893 406.232C645.045 406.165 645.165 406.039 645.225 405.883C645.285 405.726 645.281 405.553 645.213 405.4L643.661 401.911C643.628 401.834 643.58 401.765 643.52 401.708C643.46 401.65 643.389 401.605 643.311 401.575C643.234 401.544 643.151 401.53 643.068 401.532C642.985 401.534 642.903 401.552 642.827 401.586C642.751 401.62 642.682 401.668 642.625 401.729C642.568 401.789 642.523 401.861 642.493 401.938C642.464 402.016 642.45 402.099 642.453 402.182C642.455 402.265 642.474 402.347 642.509 402.423L644.06 405.913ZM660.582 405.948C660.659 405.979 660.741 405.994 660.824 405.993C660.907 405.992 660.988 405.975 661.065 405.942C661.141 405.91 661.21 405.862 661.268 405.803C661.325 405.744 661.371 405.674 661.402 405.597L662.82 402.051C662.882 401.896 662.88 401.722 662.814 401.568C662.748 401.414 662.624 401.293 662.468 401.231C662.313 401.169 662.14 401.171 661.986 401.237C661.832 401.303 661.711 401.427 661.649 401.582L660.23 405.128C660.199 405.205 660.184 405.288 660.185 405.37C660.186 405.453 660.204 405.535 660.236 405.611C660.269 405.687 660.316 405.756 660.376 405.814C660.435 405.872 660.505 405.918 660.582 405.948Z" fill="white"/>
<circle cx="653.5" cy="538.5" r="45.1602" stroke="white" stroke-width="2.67951"/>
<path d="M643.937 521.991C645.027 522.288 646.117 522.485 647.207 522.782C648.297 523.078 649.387 523.276 650.476 523.573C650.774 523.671 650.873 523.573 650.972 523.276C651.368 521.596 651.765 520.014 652.161 518.334C652.26 518.037 652.359 517.938 652.656 518.037C653.647 518.334 654.539 518.531 655.53 518.729C655.827 518.828 655.827 518.927 655.728 519.124C655.332 520.706 654.936 522.386 654.539 523.968C654.539 524.067 654.539 524.166 654.44 524.363C655.233 524.561 656.125 524.759 656.917 524.956C657.016 524.956 657.116 524.759 657.215 524.66C657.512 523.375 657.809 522.189 658.206 520.904L658.503 519.717C658.503 519.52 658.602 519.421 658.8 519.52C659.791 519.816 660.782 520.014 661.872 520.311C661.971 520.311 661.971 520.409 662.07 520.409C661.773 521.694 661.475 522.881 661.178 524.067C661.079 524.561 660.98 525.055 660.782 525.55C660.683 525.846 660.782 525.945 661.079 526.044L664.349 527.527C665.34 528.12 666.232 528.91 666.925 529.899C667.817 531.382 667.916 532.963 667.52 534.545C667.223 535.632 666.826 536.621 666.034 537.411C665.439 538.004 664.646 538.4 663.854 538.696C663.755 538.696 663.655 538.795 663.457 538.795C663.854 539.092 664.25 539.29 664.646 539.586C665.835 540.476 666.628 541.563 667.025 542.947C667.223 544.034 667.124 545.22 666.826 546.308C666.43 547.692 665.935 548.878 665.043 549.965C663.953 551.25 662.565 551.942 660.98 552.14C658.899 552.436 656.917 552.239 654.936 551.942C654.638 551.843 654.44 551.942 654.341 552.239C653.945 553.82 653.548 555.501 653.152 557.082C653.053 557.478 653.053 557.577 652.557 557.379C651.666 557.181 650.675 556.885 649.783 556.687C649.486 556.588 649.486 556.489 649.585 556.292C649.981 554.611 650.377 552.931 650.873 551.349C650.873 551.151 650.972 551.053 650.774 550.954C649.981 550.756 649.188 550.558 648.297 550.361C648.098 551.25 647.801 552.14 647.603 553.029C647.405 553.919 647.107 554.809 646.909 555.698C646.81 555.896 646.81 555.995 646.513 555.896C645.522 555.6 644.531 555.402 643.54 555.204C643.243 555.105 643.243 555.006 643.342 554.809C643.738 553.128 644.135 551.448 644.63 549.866C644.63 549.767 644.729 549.669 644.729 549.471C642.45 548.878 640.171 548.285 637.793 547.692C637.991 547.296 638.09 547 638.288 546.604C638.685 545.715 639.081 544.825 639.378 544.034C639.477 543.738 639.577 543.738 639.874 543.738C640.567 543.935 641.36 544.133 642.054 544.232C642.847 544.43 643.441 544.034 643.54 543.342C644.828 538.301 646.117 533.26 647.306 528.12C647.504 527.329 647.008 526.439 646.117 526.143C645.225 525.846 644.333 525.648 643.54 525.451C643.342 525.451 643.243 525.352 643.342 525.154C643.639 524.067 643.937 522.881 644.234 521.793C643.837 522.09 643.837 522.09 643.937 521.991ZM648.99 546.407C649.089 546.407 649.188 546.505 649.188 546.505C650.774 546.901 652.458 547.395 654.143 547.494C655.332 547.593 656.422 547.593 657.512 547.197C659.395 546.604 660.187 544.133 659.097 542.552C658.602 541.761 657.809 541.267 657.016 540.772C655.233 539.784 653.152 539.388 651.17 538.993C650.873 538.894 650.873 538.993 650.774 539.29C650.576 540.278 650.278 541.168 650.08 542.156C649.684 543.54 649.387 544.924 648.99 546.407ZM657.314 536.324C657.512 536.324 658.007 536.225 658.404 536.126C660.286 535.731 661.277 533.556 660.286 531.876C659.791 530.986 658.899 530.393 658.007 529.998C656.62 529.405 655.233 529.108 653.746 528.713C653.449 528.614 653.35 528.713 653.251 529.009C652.756 531.085 652.26 533.062 651.666 535.138C651.566 535.336 651.666 535.434 651.864 535.533C652.26 535.632 652.557 535.731 652.954 535.83C654.44 536.028 655.728 536.324 657.314 536.324Z" fill="white"/>
<circle cx="899.5" cy="413.5" r="45.1602" stroke="white" stroke-width="2.67951"/>
<g clip-path="url(#clip9_443_689)">
<path d="M913.429 413.281C913.429 412.052 913.329 411.155 913.112 410.225H899.015V415.772H907.29C907.123 417.151 906.222 419.227 904.22 420.622L904.192 420.808L908.649 424.245L908.958 424.276C911.794 421.668 913.429 417.832 913.429 413.281Z" fill="white"/>
<path d="M899.015 427.897C903.069 427.897 906.472 426.568 908.958 424.276L904.22 420.622C902.952 421.502 901.251 422.117 899.015 422.117C895.045 422.117 891.675 419.509 890.474 415.905L890.298 415.92L885.663 419.491L885.603 419.658C888.072 424.542 893.143 427.897 899.015 427.897Z" fill="white"/>
<path d="M890.474 415.905C890.157 414.975 889.974 413.978 889.974 412.949C889.974 411.919 890.157 410.922 890.457 409.992L890.449 409.794L885.756 406.166L885.603 406.238C884.585 408.265 884.001 410.54 884.001 412.949C884.001 415.357 884.585 417.632 885.603 419.659L890.474 415.905Z" fill="white"/>
<path d="M899.015 403.78C901.835 403.78 903.736 404.993 904.821 406.006L909.058 401.887C906.456 399.478 903.069 398 899.015 398C893.143 398 888.072 401.355 885.603 406.238L890.457 409.992C891.675 406.388 895.045 403.78 899.015 403.78Z" fill="white"/>
</g>
<circle cx="167.5" cy="293.5" r="45.1602" stroke="white" stroke-width="2.67951"/>
<path d="M171.125 279H176.562V308H171.125V279ZM160.25 279H165.688V308H160.25V279Z" fill="white"/>
<path d="M176.562 308H171.125L160.25 279H165.688L176.562 308Z" fill="white"/>
<circle cx="530.5" cy="661.5" r="45.1602" stroke="white" stroke-width="2.67951"/>
<g clip-path="url(#clip10_443_689)">
<path d="M531.101 659.981H547V645.141C547 644.86 546.889 644.59 546.69 644.392C546.491 644.193 546.221 644.081 545.94 644.081H531.101V659.981Z" fill="white"/>
<path d="M528.981 659.981V644.081H514.141C513.86 644.081 513.59 644.193 513.392 644.392C513.193 644.59 513.081 644.86 513.081 645.141V659.981H528.981Z" fill="white"/>
<path d="M528.981 662.101H513.081V676.94C513.081 677.221 513.193 677.491 513.392 677.69C513.59 677.889 513.86 678 514.141 678H528.981V662.101Z" fill="white"/>
<path d="M531.101 662.101V678H545.94C546.221 678 546.491 677.889 546.69 677.69C546.889 677.491 547 677.221 547 676.94V662.101H531.101Z" fill="white"/>
</g>
<circle cx="653.5" cy="661.5" r="45.1602" stroke="white" stroke-width="2.67951"/>
<circle cx="653.5" cy="661.5" r="45.1602" stroke="white" stroke-width="2.67951"/>
<path d="M638 676.407V669.252H642.174V652.899H638V646H655.461C656.653 646 657.845 646.341 658.953 646.767C661.167 647.618 663.126 648.896 664.659 650.77C666.022 652.388 666.959 654.262 667.47 656.391C668.322 659.968 668.322 663.631 667.3 667.208C665.937 671.893 663.041 675.044 658.101 676.151C657.249 676.322 656.312 676.407 655.461 676.492H638.681C638.426 676.407 638.256 676.407 638 676.407ZM650.691 669.252C651.628 669.252 652.565 669.338 653.502 669.252C654.694 669.167 655.801 668.741 656.568 667.719C657.249 666.868 657.845 665.931 658.186 664.909C658.868 662.609 658.612 660.309 658.101 658.009C657.845 656.647 657.164 655.369 656.312 654.347C655.801 653.751 655.12 653.069 654.353 652.984C653.161 652.729 651.883 652.899 650.691 652.899V669.252Z" fill="white"/>
<circle cx="776.5" cy="661.5" r="45.1602" stroke="white" stroke-width="2.67951"/>
<path d="M780.839 666.336C777.651 666.336 774.744 663.87 774.623 663.765C774.386 663.557 774.241 663.265 774.218 662.951C774.196 662.637 774.298 662.327 774.503 662.088C774.708 661.849 774.999 661.701 775.313 661.675C775.626 661.65 775.937 661.749 776.178 661.951C776.202 661.97 778.544 663.944 780.839 663.944C780.858 663.946 780.879 663.939 780.898 663.939L780.898 658.987C780.406 658.839 779.88 658.734 779.285 658.734C775.872 658.734 771.838 661.485 769.417 663.602C772.118 665.825 776.707 668.509 780.062 668.509C780.334 668.509 780.616 668.475 780.898 668.442L780.898 666.332L780.839 666.336Z" fill="white"/>
<path d="M758.195 675.679L779.704 675.679C780.021 675.679 780.325 675.553 780.549 675.329C780.773 675.105 780.899 674.801 780.899 674.484L780.899 670.839C780.619 670.865 780.34 670.899 780.063 670.899C775.311 670.899 769.413 666.965 766.813 664.484C766.576 664.262 766.445 663.951 766.442 663.629C766.44 663.306 766.571 662.993 766.801 662.766C767.472 662.109 773.526 656.342 779.288 656.342C779.864 656.342 780.395 656.411 780.901 656.512L780.901 654.301C780.607 654.234 780.316 654.17 780.063 654.17C776.731 654.17 766.904 656.887 763.811 659.912C763.584 660.129 763.28 660.247 762.966 660.242C762.652 660.236 762.352 660.107 762.133 659.882C761.913 659.658 761.791 659.356 761.792 659.041C761.794 658.727 761.919 658.426 762.141 658.204C765.864 654.557 776.272 651.78 780.063 651.78C780.328 651.78 780.619 651.861 780.899 651.904L780.899 648.195C780.899 647.878 780.773 647.574 780.549 647.35C780.325 647.126 780.021 647 779.704 647L758.195 647C757.878 647 757.574 647.126 757.35 647.35C757.126 647.574 757 647.878 757 648.195L757 674.484C757 674.801 757.126 675.105 757.35 675.329C757.574 675.553 757.878 675.679 758.195 675.679Z" fill="white"/>
<path d="M784.802 662.469C783.941 663.05 782.407 663.915 780.899 663.939L780.899 666.332C784.066 666.3 786.934 663.87 787.055 663.767C787.236 663.612 787.366 663.406 787.429 663.176C787.492 662.946 787.484 662.702 787.407 662.477C787.33 662.247 785.622 657.441 780.899 656.511L780.899 658.985C783.04 659.625 784.262 661.415 784.802 662.469Z" fill="white"/>
<path d="M792.192 663.229C791.331 663.691 790.452 664.19 789.57 664.694C786.599 666.389 783.54 668.119 780.899 668.442L780.899 670.839C784.104 670.543 787.479 668.638 790.753 666.769C792.051 666.03 793.332 665.299 794.57 664.694C794.729 664.616 794.869 664.503 794.979 664.363C795.089 664.224 795.167 664.062 795.207 663.889C795.247 663.716 795.249 663.536 795.211 663.362C795.173 663.189 795.097 663.026 794.988 662.885C790.928 657.697 785.156 652.527 780.899 651.904L780.899 654.301C783.724 654.929 788.241 658.483 792.192 663.229Z" fill="white"/>
<circle cx="899.5" cy="661.5" r="45.1602" stroke="white" stroke-width="2.67951"/>
<path d="M891.89 657.958L898.804 651.047L905.721 657.964L909.742 653.94L898.804 643L887.867 653.937L891.89 657.958Z" fill="white"/>
<path d="M881 660.801L885.021 656.777L889.044 660.801L885.021 664.822L881 660.801Z" fill="white"/>
<path d="M891.89 663.641L898.804 670.555L905.721 663.638L909.745 667.657L898.807 678.596L887.866 667.664L891.89 663.641Z" fill="white"/>
<path d="M908.555 660.801L912.575 656.777L916.599 660.798L912.575 664.825L908.555 660.801Z" fill="white"/>
<path d="M902.884 660.799L898.804 656.716L895.787 659.733L895.439 660.079L894.725 660.793L898.804 664.87L902.884 660.801V660.799Z" fill="white"/>
<circle cx="653.5" cy="660.5" r="45.1602" stroke="white" stroke-width="2.67951"/>
<circle cx="653.5" cy="660.5" r="45.1602" stroke="white" stroke-width="2.67951"/>
<path d="M638 675.407V668.252H642.174V651.899H638V645H655.461C656.653 645 657.845 645.341 658.953 645.767C661.167 646.618 663.126 647.896 664.659 649.77C666.022 651.388 666.959 653.262 667.47 655.391C668.322 658.968 668.322 662.631 667.3 666.208C665.937 670.893 663.041 674.044 658.101 675.151C657.249 675.322 656.312 675.407 655.461 675.492H638.681C638.426 675.407 638.256 675.407 638 675.407ZM650.691 668.252C651.628 668.252 652.565 668.338 653.502 668.252C654.694 668.167 655.801 667.741 656.568 666.719C657.249 665.868 657.845 664.931 658.186 663.909C658.868 661.609 658.612 659.309 658.101 657.009C657.845 655.647 657.164 654.369 656.312 653.347C655.801 652.751 655.12 652.069 654.353 651.984C653.161 651.729 651.883 651.899 650.691 651.899V668.252Z" fill="white"/>
<circle cx="899.5" cy="660.5" r="45.1602" stroke="white" stroke-width="2.67951"/>
<path d="M891.89 656.958L898.804 650.047L905.721 656.964L909.741 652.94L898.804 642L887.867 652.937L891.89 656.958Z" fill="white"/>
<path d="M881 659.801L885.021 655.777L889.044 659.801L885.021 663.822L881 659.801Z" fill="white"/>
<path d="M891.89 662.641L898.804 669.555L905.721 662.638L909.745 666.657L898.807 677.596L887.866 666.664L891.89 662.641Z" fill="white"/>
<path d="M908.555 659.801L912.576 655.777L916.6 659.798L912.576 663.825L908.555 659.801Z" fill="white"/>
<path d="M902.884 659.799L898.804 655.716L895.787 658.733L895.438 659.079L894.724 659.793L898.804 663.87L902.884 659.801V659.799Z" fill="white"/>
<circle cx="776.5" cy="661.5" r="45.1602" stroke="white" stroke-width="2.67951"/>
<path d="M780.839 666.336C777.651 666.336 774.745 663.87 774.623 663.765C774.386 663.557 774.241 663.265 774.219 662.951C774.197 662.637 774.299 662.327 774.504 662.088C774.709 661.849 774.999 661.701 775.313 661.675C775.627 661.65 775.938 661.749 776.179 661.951C776.203 661.97 778.545 663.944 780.839 663.944C780.858 663.946 780.88 663.939 780.899 663.939L780.899 658.987C780.407 658.839 779.881 658.734 779.286 658.734C775.873 658.734 771.839 661.485 769.418 663.602C772.118 665.825 776.707 668.509 780.062 668.509C780.335 668.509 780.617 668.475 780.899 668.442L780.899 666.332L780.839 666.336Z" fill="white"/>
<path d="M758.195 675.679L779.704 675.679C780.021 675.679 780.325 675.553 780.549 675.329C780.773 675.105 780.899 674.801 780.899 674.484L780.899 670.839C780.62 670.865 780.34 670.899 780.063 670.899C775.312 670.899 769.413 666.965 766.813 664.484C766.576 664.262 766.445 663.951 766.443 663.629C766.44 663.306 766.572 662.993 766.801 662.766C767.473 662.109 773.526 656.342 779.288 656.342C779.864 656.342 780.395 656.411 780.902 656.512L780.902 654.301C780.608 654.234 780.316 654.17 780.063 654.17C776.731 654.17 766.904 656.887 763.811 659.912C763.584 660.129 763.28 660.247 762.966 660.242C762.652 660.236 762.353 660.107 762.133 659.882C761.913 659.658 761.791 659.356 761.792 659.041C761.794 658.727 761.919 658.426 762.141 658.204C765.864 654.557 776.272 651.78 780.063 651.78C780.328 651.78 780.62 651.861 780.899 651.904L780.899 648.195C780.899 647.878 780.773 647.574 780.549 647.35C780.325 647.126 780.021 647 779.704 647L758.195 647C757.878 647 757.574 647.126 757.35 647.35C757.126 647.574 757 647.878 757 648.195L757 674.484C757 674.801 757.126 675.105 757.35 675.329C757.574 675.553 757.878 675.679 758.195 675.679Z" fill="white"/>
<path d="M784.802 662.469C783.941 663.05 782.407 663.915 780.899 663.939L780.899 666.332C784.066 666.3 786.934 663.87 787.055 663.767C787.236 663.612 787.366 663.406 787.429 663.176C787.492 662.946 787.484 662.702 787.407 662.477C787.33 662.247 785.622 657.441 780.899 656.511L780.899 658.985C783.04 659.625 784.262 661.415 784.802 662.469Z" fill="white"/>
<path d="M792.192 663.229C791.331 663.691 790.452 664.19 789.57 664.694C786.599 666.389 783.54 668.119 780.899 668.442L780.899 670.839C784.104 670.543 787.479 668.638 790.753 666.769C792.051 666.03 793.332 665.299 794.57 664.694C794.729 664.616 794.869 664.503 794.979 664.363C795.089 664.224 795.167 664.062 795.207 663.889C795.247 663.716 795.249 663.536 795.211 663.362C795.173 663.189 795.097 663.026 794.988 662.885C790.928 657.697 785.156 652.527 780.899 651.904L780.899 654.301C783.724 654.929 788.241 658.483 792.192 663.229Z" fill="white"/>
<circle cx="899.5" cy="541.5" r="45.1602" stroke="white" stroke-width="2.67951"/>
<path d="M903.125 527H908.562V556H903.125V527ZM892.25 527H897.688V556H892.25V527Z" fill="white"/>
<path d="M908.562 556H903.125L892.25 527H897.688L908.562 556Z" fill="white"/>
<circle cx="776.5" cy="541.5" r="45.1602" stroke="white" stroke-width="2.67951"/>
<path d="M776.797 525.1C775.997 524.683 775.021 525.651 775.446 526.45C775.693 527.101 776.628 527.274 777.106 526.778C777.613 526.301 777.447 525.359 776.797 525.1M785.399 526.027C784.913 525.827 784.298 526.273 784.347 526.802C784.296 527.377 784.999 527.8 785.494 527.527C786.15 527.273 786.075 526.208 785.399 526.028M767.781 527.543C768.541 527.452 768.661 526.258 767.93 526.018C767.363 525.741 766.843 526.26 766.76 526.797C766.879 527.255 767.263 527.676 767.781 527.543M783.441 529.689C782.629 529.175 781.47 529.94 781.595 530.883C781.637 531.836 782.903 532.388 783.616 531.744C784.307 531.238 784.202 530.077 783.441 529.688M771.042 530.234C770.68 529.3 769.212 529.271 768.799 530.181C768.392 530.888 768.893 531.764 769.619 532.005C770.582 532.184 771.495 531.144 771.042 530.234M777.833 531.952C777.841 531.149 777.109 530.551 776.347 530.496C775.841 530.598 775.289 530.813 775.072 531.324C774.668 532.028 775.027 532.997 775.758 533.321C776.092 533.509 776.487 533.438 776.851 533.416C777.408 533.142 777.876 532.607 777.833 531.951M790.625 533.121C789.884 532.665 788.883 533.498 789.163 534.304C789.318 535.001 790.255 535.284 790.791 534.839C791.363 534.422 791.273 533.42 790.625 533.121ZM763.156 533.12C762.526 532.631 761.488 533.192 761.563 533.987C761.521 534.711 762.419 535.258 763.043 534.885C763.732 534.575 763.801 533.516 763.156 533.12M774.236 534.563C773.197 534.19 771.963 534.636 771.371 535.563C770.59 536.695 771.006 538.419 772.218 539.069C773.474 539.837 775.307 539.186 775.771 537.783C776.297 536.528 775.531 534.957 774.236 534.563M780.33 534.687C779.179 534.143 777.63 534.599 777.074 535.777C776.419 536.923 776.925 538.519 778.095 539.111C779.266 539.776 780.919 539.272 781.486 538.041C782.121 536.851 781.557 535.235 780.33 534.687M786.433 536.773C786.346 536.031 785.646 535.548 784.94 535.498C784.569 535.54 784.224 535.706 783.96 535.97C783.696 536.234 783.53 536.58 783.489 536.951C783.539 537.713 784.128 538.458 784.935 538.453C785.824 538.53 786.603 537.646 786.433 536.773M768.408 535.66C767.496 535.129 766.229 535.902 766.27 536.95C766.207 538.06 767.609 538.842 768.517 538.191C769.461 537.649 769.387 536.122 768.408 535.66M782.811 539.573C781.744 539.279 780.524 539.782 780 540.762C779.427 541.749 779.662 543.12 780.552 543.845C781.693 544.907 783.799 544.48 784.407 543.031C785.105 541.702 784.257 539.922 782.81 539.572M771.25 539.567C770.213 539.27 768.995 539.67 768.437 540.615C767.7 541.696 768.052 543.307 769.149 544.004C770.299 544.813 772.08 544.389 772.712 543.124C773.479 541.815 772.708 539.967 771.25 539.568M789.672 540.801C788.751 540.452 787.729 541.469 788.102 542.383C788.33 543.215 789.504 543.523 790.11 542.909C790.819 542.332 790.556 541.05 789.672 540.801ZM764.694 542.127C764.713 541.757 764.586 541.393 764.34 541.116C764.094 540.839 763.748 540.669 763.378 540.645C762.747 540.745 762.134 541.254 762.183 541.941C762.126 542.849 763.219 543.465 763.992 543.039C764.355 542.855 764.54 542.483 764.694 542.127ZM794.203 541.248C793.649 541.006 792.963 541.487 793.09 542.103C793.119 542.8 794.149 543.068 794.527 542.485C794.861 542.081 794.661 541.457 794.203 541.248ZM759.245 541.235C758.855 540.957 758.228 541.156 758.074 541.612C757.811 542.111 758.292 542.793 758.853 542.709C759.64 542.781 759.895 541.581 759.245 541.235M779.799 544.581C778.34 544.202 776.771 545.418 776.762 546.92C776.667 548.438 778.212 549.785 779.705 549.434C780.859 549.248 781.765 548.136 781.728 546.97C781.717 546.414 781.522 545.877 781.173 545.445C780.823 545.012 780.34 544.708 779.799 544.581ZM774.021 544.578C772.54 544.164 770.925 545.403 770.948 546.939C770.87 548.429 772.367 549.73 773.829 549.434C775.205 549.256 776.22 547.744 775.836 546.409C775.729 545.967 775.504 545.563 775.184 545.24C774.864 544.917 774.462 544.688 774.021 544.578M785.161 545.503C784.137 545.328 783.176 546.471 783.591 547.444C783.894 548.481 785.403 548.762 786.07 547.915C786.853 547.102 786.269 545.615 785.161 545.503ZM768.217 545.548C767.303 545.166 766.182 545.956 766.252 546.948C766.215 548.039 767.599 548.792 768.494 548.155C769.506 547.583 769.321 545.899 768.217 545.549M763.481 550.299C763.839 549.632 763.189 548.748 762.448 548.872C762.08 548.865 761.822 549.156 761.586 549.399C761.538 549.794 761.457 550.266 761.785 550.571C762.23 551.134 763.239 550.973 763.481 550.299ZM790.628 549.057C789.936 548.596 788.94 549.283 789.096 550.092C789.178 550.808 790.08 551.217 790.673 550.811C791.311 550.442 791.287 549.393 790.628 549.057M776.957 550.555C776.051 550.155 774.896 550.944 774.982 551.942C774.915 553.044 776.343 553.808 777.228 553.146C778.212 552.577 778.048 550.905 776.957 550.555ZM783.289 552.032C782.517 551.626 781.482 552.327 781.552 553.191C781.528 553.9 782.22 554.504 782.92 554.4C783.5 554.387 783.878 553.868 784.064 553.374C784.054 552.835 783.832 552.235 783.289 552.032M770.462 552.045C769.669 551.554 768.541 552.259 768.616 553.182C768.596 554.147 769.87 554.766 770.609 554.132C771.325 553.635 771.237 552.44 770.462 552.045M768.232 557.559C768.585 557.025 768.169 556.382 767.596 556.26C767.135 556.354 766.648 556.7 766.745 557.234C766.812 557.957 767.869 558.179 768.232 557.559M785.938 557.095C785.797 556.672 785.457 556.251 784.959 556.361C784.233 556.413 784.017 557.508 784.653 557.846C785.224 558.231 785.888 557.703 785.938 557.096M777.396 557.581C777.257 556.955 776.446 556.651 775.912 556.983C775.559 557.135 775.456 557.53 775.365 557.866C775.413 558.04 775.457 558.215 775.499 558.39C775.718 558.65 775.999 558.909 776.363 558.899C777.039 558.979 777.65 558.214 777.396 557.582" fill="white"/>
<circle cx="530.5" cy="661.5" r="45.1602" stroke="white" stroke-width="2.67951"/>
<g clip-path="url(#clip11_443_689)">
<path d="M531.101 659.981H547V645.141C547 644.86 546.889 644.59 546.69 644.392C546.491 644.193 546.221 644.081 545.94 644.081H531.101V659.981Z" fill="white"/>
<path d="M528.981 659.981V644.081H514.141C513.86 644.081 513.59 644.193 513.392 644.392C513.193 644.59 513.081 644.86 513.081 645.141V659.981H528.981Z" fill="white"/>
<path d="M528.981 662.101H513.081V676.94C513.081 677.221 513.193 677.491 513.392 677.69C513.59 677.889 513.86 678 514.141 678H528.981V662.101Z" fill="white"/>
<path d="M531.101 662.101V678H545.94C546.221 678 546.491 677.889 546.69 677.69C546.889 677.491 547 677.221 547 676.94V662.101H531.101Z" fill="white"/>
</g>
<circle cx="292.5" cy="415.5" r="45.1602" stroke="white" stroke-width="2.67951"/>
<path d="M274.037 424.433L271.424 430.469H283.892L281.279 424.433H274.037Z" fill="white"/>
<path d="M295.684 409.658H288.442L285.829 415.694H298.297L295.684 409.658Z" fill="white"/>
<path d="M288.473 417.045H281.23L278.618 423.081H291.085L288.473 417.045Z" fill="white"/>
<path d="M288.459 424.433L285.847 430.469H298.315L295.702 424.433H288.459Z" fill="white"/>
<path d="M302.847 424.433L300.235 430.469H312.702L310.09 424.433H302.847Z" fill="white"/>
<path d="M293.041 423.081H305.508L302.896 417.045H295.653L293.041 423.081Z" fill="white"/>
<path d="M292.063 404.793C292.23 404.793 292.391 404.726 292.509 404.608C292.627 404.49 292.694 404.329 292.694 404.162V400.288C292.694 400.121 292.627 399.961 292.509 399.842C292.391 399.724 292.23 399.658 292.063 399.658C291.896 399.658 291.735 399.724 291.617 399.842C291.499 399.961 291.432 400.121 291.432 400.288V404.162C291.432 404.329 291.499 404.49 291.617 404.608C291.735 404.726 291.896 404.793 292.063 404.793ZM306.622 409.845C306.704 409.845 306.786 409.829 306.863 409.797C306.939 409.766 307.009 409.719 307.067 409.661L309.768 406.96C309.886 406.842 309.953 406.681 309.953 406.514C309.953 406.347 309.886 406.186 309.768 406.068C309.65 405.95 309.489 405.883 309.322 405.883C309.155 405.883 308.994 405.95 308.876 406.068L306.175 408.769C306.087 408.857 306.027 408.969 306.003 409.092C305.979 409.214 305.991 409.341 306.039 409.456C306.086 409.571 306.167 409.67 306.271 409.739C306.375 409.808 306.497 409.845 306.621 409.845L306.622 409.845ZM276.968 409.661C277.087 409.779 277.247 409.845 277.414 409.845C277.581 409.845 277.742 409.779 277.86 409.661C277.978 409.542 278.045 409.382 278.045 409.215C278.045 409.047 277.978 408.887 277.86 408.769L275.159 406.068C275.101 406.01 275.031 405.963 274.955 405.932C274.878 405.9 274.796 405.884 274.714 405.884C274.631 405.884 274.549 405.9 274.472 405.932C274.396 405.963 274.326 406.01 274.268 406.068C274.209 406.127 274.163 406.196 274.131 406.273C274.099 406.349 274.083 406.431 274.083 406.514C274.083 406.597 274.099 406.679 274.131 406.756C274.163 406.832 274.209 406.902 274.268 406.96L276.968 409.661ZM283.06 405.913C283.128 406.065 283.254 406.185 283.41 406.245C283.566 406.305 283.74 406.3 283.893 406.232C284.045 406.165 284.165 406.039 284.225 405.883C284.285 405.726 284.28 405.553 284.213 405.4L282.661 401.911C282.628 401.834 282.58 401.765 282.52 401.708C282.46 401.65 282.389 401.605 282.311 401.575C282.234 401.544 282.151 401.53 282.068 401.532C281.985 401.534 281.903 401.552 281.827 401.586C281.75 401.62 281.682 401.668 281.625 401.729C281.567 401.789 281.523 401.861 281.493 401.938C281.464 402.016 281.45 402.099 281.452 402.182C281.455 402.265 281.474 402.347 281.508 402.423L283.06 405.913ZM299.582 405.948C299.659 405.979 299.741 405.994 299.824 405.993C299.907 405.992 299.988 405.975 300.064 405.942C300.141 405.91 300.21 405.862 300.267 405.803C300.325 405.744 300.371 405.674 300.402 405.597L301.82 402.051C301.882 401.896 301.88 401.722 301.814 401.568C301.748 401.414 301.624 401.293 301.468 401.231C301.313 401.169 301.139 401.171 300.986 401.237C300.832 401.303 300.711 401.427 300.649 401.582L299.23 405.128C299.199 405.205 299.184 405.288 299.185 405.37C299.186 405.453 299.203 405.535 299.236 405.611C299.269 405.687 299.316 405.756 299.375 405.814C299.435 405.872 299.505 405.918 299.582 405.948Z" fill="white"/>
<circle cx="415.5" cy="415.5" r="45.1602" stroke="white" stroke-width="2.67951"/>
<path d="M406.144 398.991C407.234 399.288 408.324 399.485 409.414 399.782C410.504 400.078 411.594 400.276 412.684 400.573C412.981 400.671 413.08 400.573 413.179 400.276C413.575 398.596 413.972 397.014 414.368 395.334C414.467 395.037 414.566 394.938 414.864 395.037C415.854 395.334 416.746 395.531 417.737 395.729C418.034 395.828 418.034 395.927 417.935 396.124C417.539 397.706 417.143 399.386 416.746 400.968C416.746 401.067 416.746 401.166 416.647 401.363C417.44 401.561 418.332 401.759 419.124 401.956C419.223 401.956 419.323 401.759 419.422 401.66C419.719 400.375 420.016 399.189 420.413 397.904L420.71 396.717C420.71 396.52 420.809 396.421 421.007 396.52C421.998 396.816 422.989 397.014 424.079 397.311C424.178 397.311 424.178 397.409 424.277 397.409C423.98 398.694 423.683 399.881 423.385 401.067C423.286 401.561 423.187 402.055 422.989 402.55C422.89 402.846 422.989 402.945 423.286 403.044L426.556 404.527C427.547 405.12 428.439 405.91 429.132 406.899C430.024 408.382 430.123 409.963 429.727 411.545C429.43 412.632 429.033 413.621 428.241 414.411C427.646 415.004 426.853 415.4 426.061 415.696C425.962 415.696 425.863 415.795 425.664 415.795C426.061 416.092 426.457 416.29 426.853 416.586C428.042 417.476 428.835 418.563 429.232 419.947C429.43 421.034 429.331 422.22 429.033 423.308C428.637 424.692 428.142 425.878 427.25 426.965C426.16 428.25 424.773 428.942 423.187 429.14C421.106 429.436 419.124 429.239 417.143 428.942C416.845 428.843 416.647 428.942 416.548 429.239C416.152 430.82 415.755 432.501 415.359 434.082C415.26 434.478 415.26 434.577 414.764 434.379C413.873 434.181 412.882 433.885 411.99 433.687C411.693 433.588 411.693 433.489 411.792 433.292C412.188 431.611 412.584 429.931 413.08 428.349C413.08 428.151 413.179 428.053 412.981 427.954C412.188 427.756 411.395 427.558 410.504 427.361C410.305 428.25 410.008 429.14 409.81 430.029C409.612 430.919 409.314 431.809 409.116 432.698C409.017 432.896 409.017 432.995 408.72 432.896C407.729 432.6 406.738 432.402 405.747 432.204C405.45 432.105 405.45 432.006 405.549 431.809C405.945 430.128 406.342 428.448 406.837 426.866C406.837 426.767 406.936 426.669 406.936 426.471C404.657 425.878 402.378 425.285 400 424.692C400.198 424.296 400.297 424 400.495 423.604C400.892 422.715 401.288 421.825 401.585 421.034C401.685 420.738 401.784 420.738 402.081 420.738C402.775 420.935 403.567 421.133 404.261 421.232C405.054 421.43 405.648 421.034 405.747 420.342C407.035 415.301 408.324 410.26 409.513 405.12C409.711 404.329 409.215 403.439 408.324 403.143C407.432 402.846 406.54 402.648 405.747 402.451C405.549 402.451 405.45 402.352 405.549 402.154C405.846 401.067 406.144 399.881 406.441 398.793C406.044 399.09 406.044 399.09 406.144 398.991ZM411.197 423.407C411.296 423.407 411.395 423.505 411.395 423.505C412.981 423.901 414.665 424.395 416.35 424.494C417.539 424.593 418.629 424.593 419.719 424.197C421.602 423.604 422.394 421.133 421.304 419.552C420.809 418.761 420.016 418.267 419.223 417.772C417.44 416.784 415.359 416.388 413.377 415.993C413.08 415.894 413.08 415.993 412.981 416.29C412.783 417.278 412.485 418.168 412.287 419.156C411.891 420.54 411.594 421.924 411.197 423.407ZM419.521 413.324C419.719 413.324 420.214 413.225 420.611 413.126C422.493 412.731 423.484 410.556 422.493 408.876C421.998 407.986 421.106 407.393 420.214 406.998C418.827 406.405 417.44 406.108 415.953 405.713C415.656 405.614 415.557 405.713 415.458 406.009C414.963 408.085 414.467 410.062 413.873 412.138C413.774 412.336 413.873 412.434 414.071 412.533C414.467 412.632 414.764 412.731 415.161 412.83C416.647 413.028 417.935 413.324 419.521 413.324Z" fill="white"/>
<circle cx="292.5" cy="538.5" r="45.1602" stroke="white" stroke-width="2.67951"/>
<path d="M290.026 557L281.386 541.928V538.376H284.266C285.418 538.376 286.426 538.216 287.29 537.896C288.186 537.544 288.922 537.048 289.498 536.408C290.106 535.768 290.522 535 290.746 534.104H281.386V530.552H290.698C290.506 529.72 290.17 528.984 289.69 528.344C289.242 527.704 288.634 527.208 287.866 526.856C287.13 526.472 286.234 526.28 285.178 526.28H281.386V522.728H303.034V526.28H295.498C296.042 526.888 296.49 527.544 296.842 528.248C297.226 528.952 297.482 529.72 297.61 530.552H303.034V534.104H297.706C297.386 536.472 296.474 538.328 294.97 539.672C293.466 540.984 291.53 541.88 289.162 542.36L298.57 557H290.026Z" fill="white"/>
<defs>
<clipPath id="clip0_443_689">
<rect width="34" height="34" fill="white" transform="translate(636 29)"/>
</clipPath>
<clipPath id="clip1_443_689">
<rect width="29.4444" height="30" fill="white" transform="translate(638 154)"/>
</clipPath>
<clipPath id="clip2_443_689">
<rect width="33.9192" height="33.9192" fill="white" transform="translate(513.081 275.081)"/>
</clipPath>
<clipPath id="clip3_443_689">
<rect width="34" height="34" fill="white" transform="translate(152 29)"/>
</clipPath>
<clipPath id="clip4_443_689">
<rect width="29.4444" height="30" fill="white" transform="translate(31 154)"/>
</clipPath>
<clipPath id="clip5_443_689">
<rect width="33.9192" height="33.9192" fill="white" transform="translate(29.0811 275.081)"/>
</clipPath>
<clipPath id="clip6_443_689">
<rect width="46" height="46" fill="white" transform="translate(24 515)"/>
</clipPath>
<clipPath id="clip7_443_689">
<rect width="35.9089" height="28.4795" fill="white" transform="translate(27.3761 647.33)"/>
</clipPath>
<clipPath id="clip8_443_689">
<rect width="38" height="38" fill="white" transform="translate(511 519)"/>
</clipPath>
<clipPath id="clip9_443_689">
<rect width="29.4444" height="30" fill="white" transform="translate(884 398)"/>
</clipPath>
<clipPath id="clip10_443_689">
<rect width="33.9192" height="33.9192" fill="white" transform="translate(513.081 644.081)"/>
</clipPath>
<clipPath id="clip11_443_689">
<rect width="33.9192" height="33.9192" fill="white" transform="translate(513.081 644.081)"/>
</clipPath>
</defs>
</svg>
