<svg width="54" height="54" viewBox="0 0 54 54" fill="none" xmlns="http://www.w3.org/2000/svg">
<path d="M54 6L48 0H0V48L6 54H54V6Z" fill="url(#paint0_linear_1_142)"/>
<g clip-path="url(#clip0_1_142)">
<path d="M17.7115 33.5539C17.8892 33.3735 18.1304 33.2719 18.3821 33.2715H41.5247C41.6186 33.2713 41.7103 33.2994 41.7884 33.3521C41.8664 33.4048 41.9273 33.4798 41.9631 33.5675C41.999 33.6553 42.0084 33.7518 41.99 33.8449C41.9716 33.9381 41.9263 34.0235 41.8598 34.0906L37.2883 38.7169C37.2002 38.806 37.0957 38.8766 36.9806 38.9248C36.8655 38.973 36.7422 38.9977 36.6177 38.9976H13.4751C13.3819 38.9971 13.291 38.9687 13.2136 38.9161C13.1362 38.8636 13.0759 38.7891 13.0401 38.7021C13.0043 38.615 12.9946 38.5192 13.0123 38.4266C13.03 38.334 13.0742 38.2487 13.1395 38.1814L17.7115 33.5539Z" fill="white"/>
<path d="M17.7115 16.2802C17.8911 16.1029 18.1313 16.0026 18.3822 16H41.5248C41.6186 15.9999 41.7104 16.0279 41.7884 16.0806C41.8665 16.1333 41.9273 16.2083 41.9632 16.2961C41.9991 16.3838 42.0084 16.4804 41.99 16.5735C41.9716 16.6666 41.9263 16.7521 41.8598 16.8191L37.2884 21.4454C37.2003 21.5345 37.0957 21.6052 36.9806 21.6533C36.8656 21.7015 36.7422 21.7262 36.6177 21.7262H13.4751C13.3819 21.7256 13.291 21.6972 13.2136 21.6447C13.1363 21.5921 13.0759 21.5176 13.0401 21.4306C13.0043 21.3435 12.9947 21.2477 13.0123 21.1551C13.03 21.0625 13.0742 20.9773 13.1395 20.91L17.7115 16.2802Z" fill="white"/>
<path d="M37.2887 24.8622C37.2006 24.7731 37.096 24.7024 36.981 24.6543C36.8659 24.6061 36.7425 24.5814 36.618 24.5814H13.4754C13.3817 24.5815 13.29 24.6096 13.2121 24.6623C13.1341 24.715 13.0733 24.7899 13.0374 24.8776C13.0015 24.9652 12.9921 25.0617 13.0103 25.1548C13.0285 25.2478 13.0736 25.3334 13.1398 25.4005L17.7118 30.0269C17.7999 30.116 17.9045 30.1866 18.0195 30.2348C18.1346 30.283 18.258 30.3077 18.3825 30.3076H41.5251C41.6189 30.3077 41.7107 30.2797 41.7887 30.227C41.8668 30.1743 41.9276 30.0993 41.9635 30.0115C41.9994 29.9238 42.0087 29.8272 41.9903 29.7341C41.9719 29.641 41.9266 29.5555 41.8601 29.4885L37.2887 24.8622Z" fill="white"/>
</g>
<defs>
<linearGradient id="paint0_linear_1_142" x1="0" y1="0" x2="54" y2="54" gradientUnits="userSpaceOnUse">
<stop stop-color="#F65200"/>
<stop offset="1" stop-color="#FE9000"/>
</linearGradient>
<clipPath id="clip0_1_142">
<rect width="29" height="23" fill="white" transform="translate(13 16)"/>
</clipPath>
</defs>
</svg>
