<svg width="32" height="29" viewBox="0 0 32 29" fill="none" xmlns="http://www.w3.org/2000/svg">
<path d="M0.603472 2.0138L1.93527 0.682H13.9215L15.2533 2.0138V5.94677L13.7966 7.40343L15.2533 8.83928V14H9.92607V10.0046L7.34571 7.50748V7.27857L9.92607 4.78145V4.55254H5.93067V14H0.603472V2.0138ZM31.1245 14H17.7857L16.4747 12.6682V2.0138L17.8065 0.682H29.7927L31.1245 2.0138V8.17338L29.1892 10.1295H31.1245V14ZM25.7973 4.55254H21.8019V10.1295H22.7799L25.7973 7.15372V4.55254ZM1.93527 29L0.603472 27.6682V17.0138L1.93527 15.682H13.9215L15.2533 17.0138V29H9.92607V27.2728L8.17808 29H1.93527ZM5.93067 19.5525V25.0878L9.92607 21.0924V19.5525H5.93067ZM21.8019 18.9491L23.7996 20.8843L25.7973 18.9491V15.682H31.1245V20.9468L29.6678 22.4034L31.1245 23.8393V29H25.7973V25.8162L23.7996 23.8809L21.8019 25.8162V29H16.4747V23.8393L17.9313 22.4034L16.4747 20.9468V15.682H21.8019V18.9491Z" fill="white"/>
</svg>
