<svg width="24" height="21" viewBox="0 0 24 21" fill="none" xmlns="http://www.w3.org/2000/svg">
<g clip-path="url(#clip0_64_3)">
<path d="M0.111816 1.03296L1.15311 0.0261841H10.5247L11.566 1.03296V4.00609L10.4271 5.10726L11.566 6.19268V10.0939H7.40086V7.07361L5.38336 5.18591V5.01286L7.40086 3.12516V2.95212H4.27698V10.0939H0.111816V1.03296ZM23.9753 10.0939H13.5461L12.521 9.08716V1.03296L13.5623 0.0261841H22.9339L23.9753 1.03296V5.68929L22.4621 7.16799H23.9753V10.0939ZM19.8101 2.95212H16.6862V7.16799H17.4509L19.8101 4.91848V2.95212ZM1.15311 21L0.111816 19.9933V11.939L1.15311 10.9323H10.5247L11.566 11.939V21H7.40086V19.6943L6.03417 21H1.15311ZM4.27698 13.8582V18.0426L7.40086 15.0223V13.8582H4.27698ZM16.6862 13.402L18.2481 14.865L19.8101 13.402V10.9323H23.9753V14.9122L22.8363 16.0134L23.9753 17.0988V21H19.8101V18.5931L18.2481 17.1302L16.6862 18.5931V21H12.521V17.0988L13.6599 16.0134L12.521 14.9122V10.9323H16.6862V13.402Z" fill="#E76100"/>
</g>
<defs>
<clipPath id="clip0_64_3">
<rect width="24" height="21" fill="white"/>
</clipPath>
</defs>
</svg>
