<svg width="48" height="44" viewBox="0 0 48 44" fill="none" xmlns="http://www.w3.org/2000/svg">
<path d="M0.321136 2.4105L2.38664 0.345003L20.9761 0.345003L23.0416 2.4105V8.51018L20.7825 10.7693L23.0416 12.9962V21H14.7796V14.8035L10.7777 10.9307V10.5757L14.7796 6.70287V6.34786H8.58313L8.58313 21H0.321136L0.321136 2.4105ZM47.6564 21L26.9692 21L24.9359 18.9345V2.4105L27.0014 0.345003L45.5909 0.345003L47.6564 2.4105V11.9634L44.655 14.9971L47.6564 14.9971V21ZM39.3944 6.34786L33.1979 6.34786V14.9971H34.7148L39.3944 10.382V6.34786ZM2.38664 44L0.321136 41.9345L0.321136 25.4105L2.38664 23.345H20.9761L23.0416 25.4105L23.0416 44H14.7796V41.3213L12.0687 44H2.38664ZM8.58313 29.3479V37.9326L14.7796 31.7361V29.3479H8.58313ZM33.1979 28.4119L36.2962 31.4134L39.3944 28.4119V23.345H47.6564V31.5102L45.3973 33.7693L47.6564 35.9962V44H39.3944V39.0622L36.2962 36.0607L33.1979 39.0622V44H24.9359V35.9962L27.1951 33.7693L24.9359 31.5102V23.345L33.1979 23.345V28.4119Z" fill="url(#paint0_linear_1209_8)"/>
<defs>
<linearGradient id="paint0_linear_1209_8" x1="24" y1="1" x2="24" y2="42" gradientUnits="userSpaceOnUse">
<stop stop-color="#FF7428"/>
<stop offset="1" stop-color="#FF520F"/>
</linearGradient>
</defs>
</svg>
